<?xml version="1.0" standalone="no"?>
<!DOCTYPE svg PUBLIC "-//W3C//DTD SVG 1.1//EN" "http://www.w3.org/Graphics/SVG/1.1/DTD/svg11.dtd" >
<svg>
<metadata>
Created by FontForge 20090622 at Sat May  6 19:41:42 2017
 By deploy user
Copyright (c) 2015 by Roland Huse. All rights reserved.
</metadata>
<defs>
<font id="BiloxiThin" horiz-adv-x="356" >
  <font-face 
    font-family="Biloxi Thin"
    font-weight="400"
    font-stretch="normal"
    units-per-em="1000"
    panose-1="2 0 0 0 0 0 0 0 0 0"
    ascent="800"
    descent="-200"
    x-height="170"
    cap-height="642"
    bbox="-580 -423 1336 878"
    underline-thickness="50"
    underline-position="-50"
    unicode-range="U+0020-U+2122"
  />
<missing-glyph horiz-adv-x="301" 
 />
    <glyph glyph-name="tt" unicode="tt" horiz-adv-x="554" 
d="M447 416q-41 -108 -56.5 -153t-29.5 -96t-14 -91q0 -27 11 -44.5t34 -17.5q22 0 50.5 12t60 33.5t64.5 52l62 58.5l8 -6q-29 -29 -63.5 -60t-67 -53t-61.5 -34.5t-53 -12.5q-27 0 -41 20t-14 52q0 40 14.5 93.5t29.5 98t56 152.5zM155 370q-24 -62 -39.5 -107t-29.5 -96
t-14 -91q0 -27 11 -44.5t34 -17.5q22 0 50.5 12t60 33.5t64.5 52l62 58.5l8 -6q-29 -29 -63.5 -60t-67 -53t-61.5 -34.5t-53 -12.5q-27 0 -41 20t-14 52q0 40 14.5 93.5t29.5 98t39 106.5zM-146 283q8 -1 19.5 -1h25.5q33 0 81.5 2t108 5.5t128 9.5t142.5 15q99 12 191.5 21
t169.5 15.5t133.5 10t82.5 2.5v-10q-27 1 -81.5 -2t-130.5 -9.5t-168.5 -16t-194.5 -21.5q-75 -9 -144 -15t-128.5 -10t-108 -5.5t-81.5 -1.5h-25.5t-19.5 1v10z" />
    <glyph glyph-name="ll" unicode="ll" horiz-adv-x="916" 
d="M1000 162q-157 -112 -324 -112q-53 0 -87 12.5t-54 33t-28 46t-8 51.5q0 49 27.5 107.5t82 112t99.5 78t91 25.5q13 0 20 -7.5t7 -19.5q0 -22 -14 -51t-37 -56t-56.5 -59t-71.5 -62l-6 8q39 31 71.5 63.5t55 59t35 53t12.5 44.5q0 17 -16 17q-45 -1 -88 -25.5t-96.5 -77
t-79.5 -108.5t-26 -102q0 -24 7.5 -47.5t26 -42.5t51 -31t82.5 -12q161 0 318 110zM647 261q-235 -199 -398 -211q-53 0 -87 12.5t-54 33t-28 46t-8 51.5q0 49 22 99t57 91t80 67t91 26q13 0 20 -7.5t7 -19.5q0 -22 -14 -51t-38 -60t-56.5 -61.5t-70.5 -55.5l-6 8
q39 27 71 58t55 61t35.5 56.5t12.5 44.5q0 17 -16 17q-45 0 -88 -25.5t-76.5 -65.5t-54.5 -88t-21 -94q0 -24 7.5 -47.5t26 -42.5t51 -31t82.5 -12q155 12 392 209z" />
    <glyph glyph-name=".notdef" horiz-adv-x="301" 
 />
    <glyph glyph-name=".null" horiz-adv-x="0" 
 />
    <glyph glyph-name="nonmarkingreturn" horiz-adv-x="301" 
 />
    <glyph glyph-name="space" unicode=" " horiz-adv-x="454" 
 />
    <glyph glyph-name="space" unicode="&#xa0;" horiz-adv-x="454" 
 />
    <glyph glyph-name="k" unicode="k" horiz-adv-x="363" 
d="M255 436q-30 -28 -59.5 -66.5t-56 -86t-48 -104t-35.5 -119.5q5 3 10 6.5t10 5.5l4 -8l-38 -22q14 69 36.5 129t50 111t58.5 91.5t62 70.5zM334 267l-79 -36q-34 -17 -74 -39t-74 -48q33 -30 78 -55.5t96 -45t106 -32.5t109 -19l-2 -10q-56 6 -112.5 20t-110 35t-100 48
t-80.5 59q37 28 78.5 52.5t77.5 42.5q41 21 83 38z" />
    <glyph glyph-name="r" unicode="r" horiz-adv-x="296" 
d="M82 171q1 -10 2 -37t1 -54q0 -18 -0.5 -35t-1.5 -31h-10q1 14 1.5 31t0.5 35q0 27 -1 54t-2 37h10zM374 160q-13 8 -28 15q-13 6 -29.5 11t-36.5 6q-24 1 -51.5 -9.5t-53.5 -32t-50 -56t-42 -80.5h-10q19 51 44 87t52.5 58t56 33t54.5 10q21 -1 39 -6.5t32 -11.5
q16 -7 29 -16z" />
    <glyph glyph-name="o" unicode="o" 
d="M84 167q-6 -25 0 -62q8 -34 33 -53.5t54 -19.5q16 0 9 20q-3 11 -12 25.5t-20.5 28t-23 24.5t-20.5 16l4 8q10 -5 23.5 -17.5t26.5 -28.5t22.5 -32.5t11.5 -29.5q2 -11 -2.5 -17.5t-18.5 -6.5q-32 0 -60 21.5t-37 59.5q-6 38 0 67zM439 162q-43 -14 -97 -21t-109 -7
q-32 0 -66.5 3t-62.5 9l4 8q28 -6 61 -8t64 -2q54 0 106.5 7t95.5 21z" />
    <glyph glyph-name="w" unicode="w" horiz-adv-x="581" 
d="M84 168q-3 -22 -3 -37q0 -17 2 -33.5t7.5 -29.5t14 -21.5t21.5 -8.5q22 0 46 13t46 32.5t38.5 39.5t27.5 36l11 3q5 -14 16 -32.5t29.5 -39.5t44.5 -36t60 -15q39 0 63.5 20t24.5 67q0 12 -4 25t-10.5 26t-14.5 24t-16 19l6 8q18 -17 33.5 -47t15.5 -55q0 -27 -8 -46
t-21.5 -30t-31.5 -16t-37 -5q-33 0 -59 13.5t-45 32t-32 39t-21 35.5q-13 -20 -31.5 -41t-40 -39t-45 -29.5t-45.5 -11.5q-16 0 -26.5 9.5t-17 24t-9 33t-2.5 36.5q0 17 3 39z" />
    <glyph glyph-name="n" unicode="n" horiz-adv-x="370" 
d="M324 68q-9 5 -14.5 18t-9 30t-6 35.5t-5 34.5t-7 27t-11.5 13q-10 2 -24.5 -5.5t-31 -21.5t-34 -32l-34.5 -37q-40 -45 -84 -104l-10 2l20 142l10 -2l-17 -121l24.5 32t34.5 42l40 44.5t41 39t37.5 26t29.5 5.5q16 -4 22 -25.5t9.5 -48t8 -51.5t17.5 -35z" />
    <glyph glyph-name="F" unicode="F" horiz-adv-x="283" 
d="M-146 549q34 0 98 -0.5t146 -1.5t176.5 -3.5t190 -6.5t186 -10t165.5 -14l-2 -10q-75 8 -165.5 14t-185.5 10t-189.5 6.5t-176.5 3.5t-145.5 1.5t-97.5 0.5v10zM209 540q-6 -21 -14 -56t-17 -79t-18 -94.5l-17.5 -103t-15.5 -103.5t-12 -96l-10 2q5 45 12 96t15.5 103.5
l17.5 103t18 94.5t17 79t14 56zM-24 409q39 -5 113 -10.5t184 -5.5q68 0 148 3.5t174 11.5v-10q-94 -8 -174 -11.5t-148 -3.5q-112 0 -186 5.5t-113 10.5z" />
    <glyph glyph-name="x" unicode="x" horiz-adv-x="257" 
d="M80 170q20 -11 43.5 -26.5t47.5 -34.5t47 -39.5t41 -41.5l-8 -6q-18 21 -40.5 41.5t-46 39t-46.5 33.5t-42 26zM250 144l-83 -62l-58.5 -44.5l-62.5 -48l-62 -48l-55 -43.5t-42 -35l-6 8q17 15 42 35l55 43.5l62 48l62.5 48l58 44.5l83.5 62z" />
    <glyph glyph-name="m" unicode="m" horiz-adv-x="572" 
d="M84 167l-17 -133q11 13 33 33t46.5 38t47 29.5t36.5 7.5q10 -3 18.5 -16.5t16.5 -29t16.5 -28.5t18.5 -15q15 -3 36.5 11l46 31.5t49.5 32t46 11.5q20 -3 36 -14t27 -24q12 -15 22 -32l-10 -4q-9 17 -20 30q-10 11 -24 21.5t-31 12.5q-20 3 -43.5 -11.5t-47.5 -31.5
t-47.5 -31.5t-42.5 -11.5q-11 1 -21 14.5t-18 29l-15.5 29t-13.5 16.5q-12 4 -34 -7t-47 -30t-48 -41t-37 -39l-9 2l20 152z" />
    <glyph glyph-name="p" unicode="p" horiz-adv-x="414" 
d="M83 170q-1 -29 -2 -68t-3.5 -81t-6.5 -89.5t-11 -104.5l-10 2q7 57 11 104.5t6.5 89.5t3.5 80.5t2 66.5h10zM213 143q0 -27 9 -48q8 -18 26 -32.5t55 -14.5q19 0 35 7.5t27 19t17.5 25.5t6.5 28t-11 25t-34 11q-26 0 -64.5 -14t-80 -51.5t-79 -103t-60.5 -168.5l-10 2
q24 105 63 172.5t81.5 105.5t83 52.5t66.5 14.5q27 0 41 -13.5t14 -32.5q0 -15 -7 -31t-19.5 -29t-30.5 -21.5t-39 -8.5q-41 0 -61 16t-29 36q-11 23 -10 53h10z" />
    <glyph glyph-name="a" unicode="a" horiz-adv-x="265" 
d="M256 179q-7 8 -16 15q-8 5 -18.5 10t-24.5 5q-25 0 -53.5 -11.5t-53 -29.5t-40.5 -39.5t-16 -41.5q0 -12 26 -12q35 0 73 15t67 45l8 -4q-2 -12 0.5 -28t7.5 -29l-10 -4q-3 8 -5.5 22.5t-3.5 24.5q-29 -27 -68.5 -39.5t-68.5 -12.5q-17 0 -26.5 5t-9.5 17q0 21 17 44.5
t43 43t56 32t57 12.5q15 0 27 -5.5t21 -11.5q11 -8 19 -17z" />
    <glyph glyph-name="b" unicode="b" horiz-adv-x="460" 
d="M213 104q-2 52 -10 102t-20 89t-27 63t-31 24q-15 0 -25 -13t-17 -33t-10 -46t-3 -51q0 -47 15.5 -85t44 -64.5t68.5 -41t90 -14.5q32 0 44.5 13t12.5 30q0 13 -6 24t-13 14l2 9q28 0 59.5 4.5t60.5 11.5t52.5 14.5t35.5 15.5l6 -8q-12 -7 -34 -15t-49.5 -14.5t-57.5 -12
t-58 -6.5q12 -15 12 -37q0 -20 -14.5 -36.5t-52.5 -16.5q-108 0 -168 58.5t-60 156.5q0 28 3.5 55.5t11.5 49.5t20.5 35t29.5 13q22 0 40 -28.5t31 -71.5t20 -93.5t7 -94.5h-10z" />
    <glyph glyph-name="e" unicode="e" horiz-adv-x="402" 
d="M83 169q3 -3 9 -6q5 -2 13.5 -3.5t22.5 -1.5q15 0 26 10t11 19q0 10 -8 14t-21 4q-5 0 -17 -5t-24 -17t-21 -32.5t-8 -42.5q-1 -70 91 -75q141 1 322 136l6 -8q-181 -138 -328 -138q-102 2 -102 85q0 25 10.5 47.5t24 35.5t27 18.5t19.5 5.5q17 0 28 -6t11 -22
q0 -12 -13.5 -25.5t-33.5 -13.5q-16 0 -26 2t-16 5q-7 4 -11 8z" />
    <glyph glyph-name="v" unicode="v" horiz-adv-x="377" 
d="M82 170q8 -27 23 -59q14 -29 35 -59q18 -25 46 -50q-2 45 -4 79.5t-8 74.5q59 16 134.5 21.5t152.5 -9.5l-2 -10q-62 16 -133 12q-67 -4 -140 -22q5 -34 6 -67q2 -39 4 -87l-6 -8q-36 30 -56 56t-36 58q-18 39 -26 68z" />
    <glyph glyph-name="s" unicode="s" horiz-adv-x="207" 
d="M119 232q-12 0 -21 -4q-8 -3 -14.5 -10.5t-6.5 -20.5q0 -26 41.5 -89t41.5 -95q0 -11 -8.5 -17t-29.5 -4q-12 1 -26 5t-27 9.5t-22.5 10.5t-22.5 14l6 8q20 -13 44.5 -24t47.5 -13q28 -1 28 11q0 27 -41.5 91t-41.5 93q0 17 8 25.5t18 13.5q11 5 26 6v-10z" />
    <glyph glyph-name="c" unicode="c" horiz-adv-x="332" 
d="M410 162q-19 11 -46 20q-23 8 -57 14.5t-79 6.5q-41 0 -77 -11t-63 -28.5t-42.5 -40.5t-15.5 -47q0 -22 28 -33.5t69 -11.5q35 0 74 9t73 28l4 -8q-35 -20 -75.5 -29.5t-75.5 -9.5q-45 0 -76 14.5t-31 40.5t16 51t44.5 44t66 30.5t81.5 11.5q45 0 80 -7t59 -15
q28 -10 49 -21z" />
    <glyph glyph-name="d" unicode="d" horiz-adv-x="450" 
d="M410 39q-8 20 -14 46q-5 22 -9.5 52t-4.5 68q0 49 5 92.5t11 76.5q7 39 17 71l10 -2q-10 -33 -17 -71q-6 -32 -11 -75.5t-5 -91.5q0 -36 4.5 -65.5t9.5 -51.5q6 -26 14 -45zM295 200q-6 3 -15 7q-8 2 -19.5 4.5t-28.5 2.5q-83 0 -140 -45t-57 -81q0 -25 16 -35.5
t41 -11.5q27 -1 51.5 7.5t53.5 24.5t56.5 38.5t50.5 50.5q19 25 37 65.5t33 82t25.5 78.5t15.5 56l10 -2q-5 -20 -15.5 -57.5t-25.5 -79.5t-33.5 -83t-38.5 -66q-24 -30 -52 -53.5t-58 -39.5t-55.5 -24.5t-54.5 -7.5t-48 13.5t-19 43.5q0 41 62 88.5t145 47.5q18 0 31 -2.5
t21 -5.5q10 -4 17 -8z" />
    <glyph glyph-name="f" unicode="f" horiz-adv-x="348" 
d="M419 327q0 25 -5 56t-20 59t-43.5 47t-76.5 19q-36 0 -63.5 -19t-48.5 -49t-35.5 -68t-23.5 -76t-13 -72t-4 -57q0 -45 7 -86t20.5 -72.5t32.5 -50t43 -18.5q15 0 27.5 17.5t12.5 60.5q0 27 -15.5 60.5t-43.5 62t-63.5 47.5t-94.5 20v10q72 -1 194.5 -13t222.5 -36
l-2 -10q-117 26 -230 37t-185 12v10q55 0 97.5 -20.5t71 -50.5t43.5 -65t15 -64q0 -49 -15 -68.5t-35 -19.5q-26 0 -47 19.5t-35.5 52t-22.5 75.5t-8 90q0 23 4 58.5t13.5 74.5t25 78t37.5 70t51 50.5t67 19.5q51 0 81.5 -20t47 -49.5t21.5 -62.5t5 -59h-10z" />
    <glyph glyph-name="g" unicode="g" horiz-adv-x="446" 
d="M191 183q-5 1 -17.5 2.5t-20.5 1.5q-16 0 -31 -5.5t-26.5 -13.5t-18 -18t-6.5 -20q1 -14 9 -19t20 -5q21 0 42 9.5t53 34.5q32 28 53 61l11 1q24 -66 26 -117q0 -41 -10 -87t-30 -91t-50 -86t-69.5 -72t-89 -49.5t-108.5 -18.5q-38 0 -59 20t-21 54q0 47 26 96t69.5 95
t100 86.5t118 71t123.5 48t117 17.5q62 0 126 -10l-2 -10q-68 11 -124 10q-53 0 -114.5 -17t-122 -46.5t-116 -69t-98 -84.5t-68 -93t-25.5 -94q0 -29 18 -46.5t52 -17.5q85 0 149.5 38.5t108.5 97.5t66.5 129.5t22.5 133.5q-4 54 -23 101q-18 -26 -34 -41.5t-34 -29
t-41.5 -24t-42.5 -10.5q-18 0 -29 7.5t-11 26.5q0 11 7.5 23t20 21.5t29.5 16t36 6.5q8 0 20.5 -1t21.5 -4z" />
    <glyph glyph-name="h" unicode="h" horiz-adv-x="538" 
d="M137 518l-72 -485q21 25 49 50.5t61.5 46t72 33t81.5 12.5q41 0 75.5 -21t60.5 -46q30 -29 56 -66l-8 -6q-25 36 -54 64q-25 24 -58.5 44.5t-71.5 20.5q-76 0 -142.5 -40.5t-124.5 -108.5l-10 3l75 501z" />
    <glyph glyph-name="q" unicode="q" horiz-adv-x="681" 
d="M250 167q-8 5 -19 9q-10 3 -24 6t-32 3q-24 0 -48 -5.5t-43.5 -15.5t-31.5 -24.5t-12 -32.5q0 -20 13.5 -31t33.5 -11q31 0 67.5 15t73 39t70.5 54t61 60l8 -6q-28 -31 -63 -61.5t-72.5 -55t-75 -40t-69.5 -15.5q-24 0 -40.5 14t-16.5 38q0 20 13 36.5t34 28t46.5 17.5
t51.5 6q20 0 34.5 -3t25.5 -7q12 -4 21 -10zM367 227l-81 -401l-10 1l83 406zM762 160q-18 2 -42 2.5t-68 -9t-89.5 -31t-90 -52t-82 -68.5t-65 -82.5t-39.5 -93.5l-10 1q12 50 40.5 95.5t67 84.5t84 70.5t92 53.5t88 31t69 9t47.5 -2z" />
    <glyph glyph-name="t" unicode="t" horiz-adv-x="279" 
d="M155 370l-30 -79l91 8q69 6 143 15q99 12 191.5 21t169.5 15.5t133.5 10t82.5 2.5v-10q-27 1 -81.5 -2t-130.5 -9.5t-168.5 -16t-194.5 -21.5q-75 -9 -144 -15q-51 -5 -96 -8q-3 -10 -6 -18q-15 -45 -29 -96t-14 -91q0 -27 11 -44.5t34 -17.5q22 0 50.5 12t60 33.5
t64.5 52l62 58.5l8 -6q-29 -29 -63.5 -60t-67 -53t-61.5 -34.5t-53 -12.5q-27 0 -41 20t-14 52q0 40 14.5 93.5t29.5 97.5q2 7 4 13q-11 -1 -22 -1q-59 -4 -107.5 -5.5t-81.5 -1.5h-25q-12 0 -20 1v10q8 -1 20 -1h25q33 0 81.5 2t107.5 5l26 2l31 83z" />
    <glyph glyph-name="y" unicode="y" horiz-adv-x="552" 
d="M84 168q-11 -27 -16.5 -45t-8 -35t0.5 -29q3 -15 23 -8q17 7 36.5 22.5l41.5 34.5q32 28 64.5 52t65.5 24q31 0 52 -20t33 -48t17 -58.5t5 -51.5q0 -14 -2.5 -38.5t-11 -52.5t-24 -57.5t-41 -53t-63 -38.5t-88.5 -15t-73.5 27t-22.5 69q0 46 43 96.5t118.5 96.5t178 82.5
t222.5 47.5l2 -10q-118 -11 -219.5 -46.5t-175.5 -80t-116.5 -93.5t-42.5 -93q0 -35 20.5 -60.5t65.5 -25.5q49 0 85 14.5t60 37t39 50.5t23 55.5t10.5 50.5t2.5 37q0 20 -4.5 48.5t-15.5 55t-30 45.5t-47 19q-30 0 -62 -23.5t-62 -50.5q-22 -20 -42.5 -36.5t-40.5 -23.5
q-11 -4 -21 -1t-13 17q-3 13 -1 29t7 33.5t18 51.5z" />
    <glyph glyph-name="z" unicode="z" horiz-adv-x="380" 
d="M142 219q17 3 37 3.5t37.5 -2t29 -8t11.5 -15.5q0 -9 -13 -21t-46 -33l-57 -36l-56 -36t-32 -27q0 -5 11 -6t26 -1q23 0 58 5.5t81 20.5t103 41t126 67l6 -8q-70 -41 -128.5 -67.5t-105.5 -41.5t-82 -21t-58 -6q-20 0 -34.5 3t-14.5 14q0 7 32.5 30t57 38l57.5 36t46 32
t13 18q0 6 -11.5 9.5t-28 4.5t-30 1t-34.5 -3z" />
    <glyph glyph-name="j" unicode="j" horiz-adv-x="377" 
d="M78 169q5 -4 23.5 -23l48 -50.5t60 -68t57 -77t43.5 -83.5t17 -84q0 -28 -12 -48t-30 -32.5t-40 -18.5t-42 -6q-32 0 -65.5 10.5t-60.5 31t-44.5 51t-17.5 70.5q0 48 18 92t48.5 82t71 67.5t88 53t97.5 32.5t122 1l-3 -11q-80 12 -148.5 -7.5t-128.5 -62t-90 -79.5
t-47.5 -79.5t-17.5 -88.5q0 -38 16.5 -66.5t42 -47.5t57.5 -29t62 -10q18 0 38.5 5.5t37 17t27.5 29.5t11 43q0 40 -17 82t-42.5 82t-55.5 75l-59.5 67t-47.5 50t-23 22zM139 385q11 -6 34 -10t43 -3v-10q-22 -1 -46.5 3.5t-36.5 11.5z" />
    <glyph glyph-name="l" unicode="l" horiz-adv-x="491" 
d="M573 162q-157 -112 -324 -112q-53 0 -87 12.5t-54 33t-28 46t-8 51.5q0 49 22 99t57 91t80 67t91 26q13 0 20 -7.5t7 -19.5q0 -22 -14 -51t-38 -60t-56.5 -61.5t-70.5 -55.5l-6 8q39 27 71 58t55 61t35.5 56.5t12.5 44.5q0 17 -16 17q-45 0 -88 -25.5t-76.5 -65.5
t-54.5 -88t-21 -94q0 -24 7.5 -47.5t26 -42.5t51 -31t82.5 -12q161 0 318 110z" />
    <glyph glyph-name="A" unicode="A" horiz-adv-x="578" 
d="M-161 217q-8 5 -18 12t-19 16t-15.5 19.5t-6.5 22.5q0 23 27 36.5t64 13.5q54 -1 128.5 -26.5t160 -74.5t175.5 -118t174 -155l-8 -8q-84 85 -173 154t-173.5 118t-158 74.5t-125.5 25.5q-32 0 -56.5 -10.5t-24.5 -29.5q0 -9 6 -18t14.5 -17.5t18 -15l16.5 -11.5zM18 -7
l48.5 77.5t70.5 104t88 118t100.5 121.5t108 114t110.5 94l6 -8q-55 -40 -110.5 -93.5t-107.5 -113t-100 -121.5t-87.5 -118.5l-70 -103.5l-48.5 -77zM550 614q-17 -90 -24 -162.5t-11 -146.5t-5.5 -154.5t0.5 -193.5l-9 -2q-4 115 -2.5 196.5t6 155.5t11.5 146.5t26 163.5z
" />
    <glyph glyph-name="C" unicode="C" horiz-adv-x="834" 
d="M745 446q0 9 -3 32t-14.5 46t-33.5 41t-60 18q-34 0 -88.5 -22t-115.5 -58t-123 -82t-111.5 -95t-81 -96.5t-31.5 -85.5q0 -30 17 -50.5t42.5 -33t56.5 -18t58 -5.5q11 0 43.5 1.5t81.5 6t111 13.5t131.5 23.5t143 36t145.5 52.5l5 -9q-118 -48 -230 -75t-202.5 -40
t-151.5 -16t-77 -3q-29 0 -61.5 6t-59.5 19.5t-45 36t-18 55.5q0 39 32 88t82.5 99t113.5 97t125.5 83.5t117.5 59t90 22.5q42 0 66 -19t36 -44t15.5 -49.5t3.5 -34.5h-10z" />
    <glyph glyph-name="D" unicode="D" horiz-adv-x="523" 
d="M245 612q0 -133 -22 -247t-64 -198t-103.5 -131.5t-139.5 -47.5q-30 0 -53 7.5t-39 19t-24.5 25.5t-8.5 26q0 22 21 30.5t63 8.5q34 0 71.5 -11.5l80.5 -25.5q57 -19 120.5 -36.5t133.5 -17.5q33 0 68 5t64.5 20t48 41t18.5 68q0 51 -21.5 106t-58 107.5t-85.5 100
t-104 83t-113 56.5t-113 21q-56 0 -88.5 -12.5t-52.5 -27.5l-6 8q22 16 55 29t92 13q56 0 115 -21.5t115.5 -58t106 -84.5t87 -102t59.5 -110t22 -108q0 -45 -19.5 -73t-50.5 -44t-68 -21.5t-71 -5.5q-73 0 -137 17.5t-121 36.5l-80 25.5t-68 11.5q-74 0 -74 -29
q0 -11 7.5 -23t22.5 -22t36.5 -16.5t48.5 -6.5q76 0 135.5 47t100 129.5t62 194.5t21.5 243h10z" />
    <glyph glyph-name="E" unicode="E" horiz-adv-x="960" 
d="M720 495q-8 -1 -20 -1h-26q-38 0 -90.5 2t-107.5 5.5t-105 8t-82 9.5l2 10q32 -5 82 -9.5t104.5 -8t106.5 -5.5t90 -2h26t20 1v-10zM303 527q4 -2 6.5 -2t4.5 -1l58 -17t80 -29t86.5 -44t77.5 -60l-8 -8q-33 33 -75 58t-84 43t-78.5 29.5t-58.5 17.5q-4 1 -7.5 1.5
t-5.5 1.5zM609 366q-8 -2 -19 -5q-9 -2 -20.5 -5t-24.5 -6l-84 -20t-101.5 -26.5t-104 -31t-92.5 -34t-66 -36t-25 -35.5q0 -21 18 -37.5t48.5 -29.5t70 -22t82.5 -15t86 -8.5t81 -2.5q63 0 136.5 7t150.5 21.5t152 36.5t141 53l6 -9q-66 -31 -142 -53.5t-153.5 -37
t-152.5 -21.5t-138 -7q-64 0 -134 6.5t-128.5 21t-96.5 38.5t-38 59q0 18 21 36t56.5 35.5t83 34t101 32t110 29.5t110.5 26q21 5 36 9l26 7z" />
    <glyph glyph-name="G" unicode="G" horiz-adv-x="1121" 
d="M892 397q-47 61 -105 85t-139 24q-66 0 -135 -20.5t-133.5 -56t-121.5 -84t-99.5 -105t-67.5 -118t-25 -122.5q0 -22 5 -41.5t16.5 -34.5t31.5 -23.5t50 -8.5q35 0 74 12t80 31.5t82 44l81 48.5l66 40t61 33.5t55 23t47 8.5q38 0 62.5 -25t39 -61.5t20.5 -77t6 -71.5
q0 -47 -16 -102.5t-47.5 -104.5t-79 -81.5t-110.5 -32.5q-25 0 -35 11t-10 39q0 30 24.5 76.5t69 101t105.5 112t134 108t155 90t168 57.5l2 -10q-85 -18 -166 -56.5t-153 -88t-132.5 -106t-104 -110t-68 -99.5t-24.5 -75q0 -22 8 -31t27 -9q61 0 106.5 31.5t76 79
t45.5 101.5t15 99q0 29 -5.5 68t-19 74t-36 59t-57.5 24q-18 0 -44 -9t-56 -24t-61.5 -33.5l-61.5 -36.5l-81.5 -48.5t-84.5 -44.5t-82 -32.5t-75 -12.5q-33 0 -55 9.5t-34.5 25.5t-18 37.5t-5.5 45.5q0 62 25 125t68.5 120t102 106.5t124 86t135.5 57.5t137 21
q83 0 143.5 -24.5t108.5 -88.5z" />
    <glyph glyph-name="H" unicode="H" horiz-adv-x="734" 
d="M253 551l-17.5 -56.5l-20.5 -66.5l-42.5 -135.5l-44.5 -141.5l-42 -128t-35 -95l-10 4q16 39 37 98.5t42.5 127.5l43.5 139l41 133l20.5 67.5l17.5 57.5zM569 684q-11 -72 -28 -159t-40.5 -180t-52.5 -186.5t-64 -178.5l-10 4q35 85 64 178.5t52.5 186t40.5 179.5t28 158
zM-145 120q60 -2 117 -3.5t113 -1.5q192 0 370.5 14t358.5 41l3 -10q-179 -27 -359.5 -41t-372.5 -14q-56 0 -113 1.5t-117 3.5v10z" />
    <glyph glyph-name="I" unicode="I" horiz-adv-x="417" 
d="M238 640q7 1 14.5 1.5t15.5 0.5q16 0 34 -2.5t34.5 -8t31 -14t24.5 -20.5t14.5 -36.5t4.5 -55.5q0 -43 -8 -97t-23 -110t-36.5 -109.5t-49 -95t-60.5 -67t-70 -25.5q-25 0 -46 16.5t-36.5 42t-25 56t-12.5 59.5h10q3 -27 11.5 -56t23 -53t33.5 -39.5t42 -15.5
q36 0 67.5 25t57.5 66t47 93t35.5 107t22 108t7.5 95q0 30 -4.5 52.5t-12.5 33.5q-9 11 -22 19t-29 13t-32.5 7t-32.5 2q-7 0 -14 -0.5t-14 -1.5z" />
    <glyph glyph-name="J" unicode="J" horiz-adv-x="512" 
d="M37 590q79 -2 161.5 1.5t183.5 11.5q16 -33 31.5 -69t28 -76.5t20 -85.5t7.5 -96q0 -67 -24.5 -133.5t-67.5 -127t-101.5 -112.5t-126.5 -90t-142 -59.5t-149 -21.5q-84 0 -151.5 21.5t-120.5 53.5t-94 70.5t-72 73.5l8 6q30 -34 70.5 -71.5t93 -69.5t118.5 -53t148 -21
q74 0 147 22t139.5 60t124 89.5t99 111t65.5 123.5t24 128q0 48 -7 91t-18.5 81.5t-26 73.5t-30.5 68q-42 -3 -88.5 -6t-91.5 -4.5t-86 -1.5t-72 2v10z" />
    <glyph glyph-name="K" unicode="K" horiz-adv-x="464" 
d="M512 -29q-54 6 -111 18.5t-110.5 34t-100 51.5t-80.5 71l57 44l83 61l103 72l116.5 77l123.5 77l124 72l4 -8q-89 -48 -179.5 -106l-171.5 -113.5l-145.5 -102.5l-99.5 -74q29 -35 73.5 -63t97 -48.5t109 -33.5t109.5 -19zM337 647q-91 -124 -163 -268.5t-120 -316.5
q7 4 14 8.5t14 8.5l6 -8l-51 -31q51 184 125.5 335.5t166.5 277.5z" />
    <glyph glyph-name="L" unicode="L" horiz-adv-x="895" 
d="M976 158q-81 -32 -157.5 -54t-153 -36t-154.5 -20.5t-162 -6.5q-33 0 -76.5 1t-90 3.5t-94 5.5t-88.5 7l-5 12l91 126t80 126.5t74.5 140.5t75.5 169l10 -4q-36 -86 -69 -156.5t-69.5 -136t-79.5 -129.5t-98 -137q186 -18 339 -18q84 0 161 6.5t152.5 20.5t152 36
t157.5 54z" />
    <glyph glyph-name="M" unicode="M" horiz-adv-x="1019" 
d="M7 26q115 217 251 390t300 316l6 -8q-164 -143 -299.5 -314.5t-249.5 -387.5zM1103 162l-59 -50t-72.5 -55.5t-74.5 -44.5t-65 -18q-38 0 -58.5 20.5t-29.5 51t-10 65t-1 63.5q0 23 -0.5 37.5t-2.5 14.5q-5 0 -23 -20.5t-41 -49.5l-46 -55.5t-49.5 -54t-48.5 -40.5
t-43 -16q-28 0 -47 22.5t-19 67.5q0 48 8 114.5t25.5 147.5t45 174.5t66.5 195.5l10 -4q-39 -102 -66.5 -195t-45 -173.5t-25.5 -146.5t-8 -113q0 -41 16.5 -60.5t39.5 -19.5q18 0 40.5 15.5t46.5 39.5t47.5 52.5l44.5 54.5l44.5 52.5t27.5 21.5q12 0 12.5 -17.5t0.5 -44.5
t1 -60t9 -62t26.5 -48.5t52.5 -19.5q27 0 62.5 18t72.5 43.5t71.5 54.5l58.5 50z" />
    <glyph glyph-name="at" unicode="@" horiz-adv-x="619" 
d="M393 188q-14 11 -28 17t-37 6q-29 0 -52 -17.5t-23 -40.5q0 -8 5 -8q3 0 19 7q11 5 24 9.5t28 4.5q11 0 24.5 -4.5t30.5 -9.5q24 -8 51 -15.5t52 -7.5q10 0 22 5t22 13t16.5 18t6.5 21q0 22 -14 49t-39.5 50.5t-60 39.5t-76.5 16q-50 0 -99 -22t-89 -59.5t-64.5 -86
t-24.5 -101.5q0 -35 12.5 -59t31.5 -39t42 -21.5t45 -6.5q45 0 81.5 5t62.5 15l4 -10q-26 -10 -64 -15t-84 -5q-23 0 -48 7t-45.5 23.5t-34 42t-13.5 63.5q0 55 25.5 105.5t67 89t92.5 61.5t102 23q44 0 80.5 -17t63 -42t41.5 -53.5t15 -52.5q0 -13 -7.5 -25t-19 -21.5
t-25 -15t-25.5 -5.5q-28 0 -55.5 7.5t-51.5 15.5q-14 5 -29.5 9.5t-21.5 4.5q-12 0 -24.5 -4.5t-23.5 -9.5q-7 -3 -12.5 -5t-10.5 -2q-7 0 -11 5t-4 13q0 28 25.5 48t59.5 20q25 0 40.5 -6.5t30.5 -18.5z" />
    <glyph glyph-name="N" unicode="N" horiz-adv-x="803" 
d="M49 14q7 40 21 91.5t34 109t44 116.5t51.5 114t56 102t57.5 80l8 -6q-28 -32 -57 -78.5t-55.5 -101t-51 -113.5t-44 -116t-33.5 -108.5t-21 -91.5zM705 560q15 -72 25 -156t10 -163q0 -53 -5.5 -100t-18.5 -82t-34.5 -55.5t-52.5 -20.5q-43 0 -83 28t-75.5 75.5
t-64.5 111t-50.5 134.5t-33 145t-11.5 144h10q0 -69 11.5 -142t32 -142.5t49 -132t62.5 -109.5t73 -74.5t80 -27.5q28 0 47.5 19.5t31.5 53.5t17 79t5 96q0 78 -10 161.5t-25 155.5z" />
    <glyph glyph-name="O" unicode="O" horiz-adv-x="858" 
d="M741 479q-31 17 -69.5 26.5t-92.5 9.5q-51 0 -107.5 -14.5t-111 -40t-104 -60t-87.5 -73.5t-60 -80.5t-22 -82.5q0 -42 21.5 -69t57 -43t81 -22t92.5 -6q55 0 113.5 8t113.5 23.5t103.5 38.5t85 53.5t58 68.5t21.5 84q0 52 -25.5 85t-62.5 52t-78.5 26t-73.5 7v10
q34 0 77 -7.5t81.5 -27.5t65 -55t26.5 -90q0 -47 -22 -86.5t-59 -71t-87 -56t-106 -40.5t-115.5 -24t-115.5 -8q-49 0 -96 6.5t-84 23.5t-59.5 46t-22.5 74q0 42 22.5 85t61 83t89 75t106.5 61.5t113.5 41.5t109.5 15q55 0 94.5 -10t71.5 -28z" />
    <glyph glyph-name="P" unicode="P" horiz-adv-x="663" 
d="M-214 519l-66 20q65 47 152 86.5t183 68t195 44t189 15.5q73 0 133.5 -20t104 -56.5t67 -89t23.5 -117.5q0 -60 -27.5 -107.5t-72 -83.5t-100.5 -61.5t-112 -42t-106.5 -24t-84.5 -7.5q-54 0 -100 1t-87 9l2 10q41 -8 87 -9t98 -1q34 0 83.5 7.5t104.5 23t109.5 40.5
t98 60.5t70.5 81t27 103.5q0 63 -23 113.5t-65 86t-100.5 54.5t-129.5 19q-88 0 -184 -14.5t-188.5 -41t-176.5 -63.5t-147 -81l23 -7.5t22 -6.5zM466 406q-18 -41 -41.5 -88t-56 -101.5t-75.5 -116t-101 -130.5l-8 6q57 67 100 128.5t75 115.5t55.5 101.5t41.5 88.5z" />
    <glyph glyph-name="R" unicode="R" horiz-adv-x="692" 
d="M12 585q85 25 174.5 39t165.5 14q39 0 71 -10t55 -27.5t36 -41t13 -49.5q0 -60 -31 -111t-87 -93.5t-135.5 -79t-175.5 -68.5q27 -44 57.5 -79t66.5 -60.5t79 -39t95 -13.5q53 0 106.5 19.5t103 49.5t91.5 66t72 69l7 -7q-31 -33 -73.5 -69.5t-92.5 -67t-105 -50.5
t-109 -20t-99 15t-83 42t-70.5 65.5t-61.5 85.5q98 32 178 68t137 78t88.5 91.5t31.5 108.5q0 24 -12 45.5t-34 37.5t-52.5 25.5t-66.5 9.5q-75 0 -164 -14t-174 -39zM258 549q-15 -43 -37 -98t-48 -114t-55.5 -118t-60.5 -110l-8 6q30 49 59 107.5t55 117.5t48 114.5
t37 98.5z" />
    <glyph glyph-name="S" unicode="S" horiz-adv-x="691" 
d="M420 157l47 5q-17 18 -44.5 32t-59 24.5t-62.5 16t-55 5.5q-29 0 -57.5 -5t-51 -16t-37 -28.5t-14.5 -41.5q0 -44 31 -77t77.5 -56t101.5 -34.5t103 -11.5q37 0 79.5 9.5t78.5 28.5t60 46t24 62q0 40 -18.5 81t-47 81.5t-63 78l-65.5 69.5q-37 38 -62 68t-25 47
q0 32 42 32q37 0 72.5 -16.5t67.5 -41.5t58.5 -53t44.5 -52l-8 -6q-18 23 -43.5 50.5t-56.5 51.5t-65.5 40.5t-69.5 16.5q-32 0 -32 -22q0 -14 24.5 -42.5t60.5 -66.5l66 -71t63.5 -78.5t47.5 -83t19 -83.5q0 -37 -25 -66t-62.5 -49t-81.5 -30.5t-83 -10.5
q-50 0 -106.5 12.5t-104.5 36.5t-80 59t-32 81q0 27 15.5 46t40 31t54.5 17t60 5q29 0 63.5 -6t67.5 -18t61.5 -29t45.5 -39l-62 -8z" />
    <glyph glyph-name="Q" unicode="Q" horiz-adv-x="829" 
d="M813 465q-7 26 -24.5 49.5t-45 41.5t-64 28.5t-79.5 10.5q-50 0 -107.5 -11t-115 -32t-111 -53.5t-95 -74.5t-66 -95t-24.5 -116q0 -54 18 -93t48 -64t69.5 -37t81.5 -12q58 0 116 11.5t110.5 32.5t98 49.5t78.5 62t52 70.5t19 76q0 59 -28 86.5t-68 27.5q-20 0 -41 -9.5
t-37.5 -25.5t-27.5 -38.5t-12 -47.5h-10q1 28 13 52t30 41.5t40.5 27.5t44.5 10q45 0 75.5 -30.5t30.5 -93.5q0 -40 -19.5 -78.5t-53.5 -73.5t-80 -64t-100 -50.5t-113 -33.5t-118 -12q-45 0 -86 12.5t-72.5 38.5t-50 67t-18.5 98q0 64 25 118.5t67 98t96.5 76.5t113.5 55
t117.5 33t109.5 11q46 0 84 -11t66.5 -30t47 -44t25.5 -53zM555 161q18 -34 39.5 -71t46.5 -73.5t52 -70.5t56 -61l-6 -8q-29 27 -56.5 61.5t-52 71t-47 74.5t-40.5 73z" />
    <glyph glyph-name="u" unicode="u" horiz-adv-x="398" 
d="M84 168q-7 -16 -12.5 -35t-5.5 -39q0 -29 16.5 -43t45.5 -14q21 0 48 13.5t55 34t55 45t48 47.5l8 -6q-22 -24 -49.5 -49.5t-56.5 -46.5t-57 -34.5t-51 -13.5q-33 0 -52.5 16.5t-19.5 50.5q0 21 6.5 41.5t12.5 34.5zM342 171q-6 -15 -8 -30.5t-0.5 -43t11.5 -59.5l-10 -3
q-11 36 -12 62t1 43t10 37z" />
    <glyph glyph-name="i" unicode="i" horiz-adv-x="287" 
d="M80 170q25 -93 106 -93q85 -1 176 92l7 -5q-94 -99 -183 -97q-89 -1 -115 99zM178 370q2 -8 8 -10q7 -3 16 3l4 -10q-5 -3 -11.5 -4t-12.5 1q-6 3 -8.5 7t-4.5 9z" />
    <glyph glyph-name="B" unicode="B" horiz-adv-x="589" 
d="M-120 610q41 0 89.5 -7t97 -19.5t93.5 -30t79.5 -38t55.5 -43t21 -46.5q0 -22 -20 -36t-43 -22q-27 -10 -62 -16q24 -3 60.5 -8.5t77.5 -15t82.5 -22t74.5 -29.5t53.5 -37.5t20.5 -45.5q0 -36 -26 -64t-68 -49t-95 -35.5t-106.5 -23.5t-103.5 -13t-85 -4q-60 0 -115 5
t-101 13.5t-82 20t-58 24.5l6 8q44 -26 137 -43.5t213 -17.5q35 0 83.5 4t101.5 12.5t104.5 22.5t92.5 33.5t66.5 46t25.5 60.5q0 25 -25.5 45.5t-65 37t-87 29t-90.5 21t-76.5 13t-45.5 4.5l-1 10q40 6 73 17q28 9 51 22t23 33q0 22 -20.5 43.5t-54.5 41t-78 36t-91 28.5
t-94.5 18.5t-87.5 6.5v10zM282 538q1 -67 -6 -131.5t-24 -122.5t-46.5 -107t-74.5 -84l-6 8q43 34 72 81.5t46 104.5t23.5 121t5.5 130h10z" />
    <glyph glyph-name="T" unicode="T" horiz-adv-x="235" 
d="M-415 527q92 16 205 32t239.5 29t262 21t273.5 8q74 0 146 -3v-10q-72 3 -146 3q-137 0 -272.5 -8t-261.5 -21t-239 -29t-205 -32zM126 482q-5 -58 -12.5 -122.5t-17 -128.5t-20.5 -123.5t-23 -106.5l-10 2q12 48 23 107t20.5 123t17 128t12.5 121h10z" />
    <glyph glyph-name="U" unicode="U" horiz-adv-x="817" 
d="M308 588q-37 -40 -76.5 -97.5t-72 -121t-53.5 -127.5t-21 -118q0 -35 10 -56.5t24 -33t29 -15.5t25 -4q56 0 115 27.5t117.5 73t114 105.5t104.5 125t90 130.5t69 123.5l8 -4q-28 -58 -69.5 -124.5t-91.5 -132t-106.5 -126t-115.5 -107t-119 -74t-116 -27.5
q-12 0 -28.5 4.5t-32 17t-26.5 36t-11 61.5q0 55 21 120t54 129.5t72.5 122t77.5 98.5zM785 584q-75 -139 -116 -247t-41 -166q0 -31 21 -54.5t56 -23.5q22 0 47 7t50 17.5t48.5 24t42.5 27.5l6 -8q-20 -14 -44 -28t-50 -25t-52 -18t-48 -7q-40 0 -63.5 26.5t-23.5 61.5
q0 58 41 167t118 250z" />
    <glyph glyph-name="V" unicode="V" horiz-adv-x="322" 
d="M-223 615q8 17 17 33.5t20.5 29t26 20t33.5 7.5q56 0 101.5 -55t78 -149t50 -219t17.5 -265h-10q0 138 -16.5 261t-48 216t-75 147t-97.5 54q-17 0 -29.5 -7t-23 -19t-19 -27t-15.5 -31zM367 393q-69 -83 -131 -180.5t-117 -199.5l-8 4q57 104 119 202.5t129 179.5z" />
    <glyph glyph-name="W" unicode="W" horiz-adv-x="810" 
d="M-6 654q0 -64 9 -137t24.5 -146t36.5 -140.5t45 -119.5t50.5 -83t52.5 -31q17 0 30 30t24 75.5t18.5 100.5t12.5 104t7.5 85.5t2.5 46.5h10q0 -10 -2 -47.5t-7 -87.5t-13 -106t-19.5 -103t-27.5 -77.5t-36 -30.5q-29 0 -57.5 32t-54 85t-47 122t-37 143.5t-24 148
t-8.5 136.5h10zM837 522q-6 -51 -17.5 -106.5t-29.5 -109t-41 -102t-51 -85t-60 -58t-68 -21.5q-43 0 -78.5 25.5t-64 64.5t-49.5 86.5t-36 91.5t-23.5 78.5t-11.5 48.5l10 2q3 -13 11.5 -47t23 -77t35 -89.5t47.5 -85t61 -63.5t75 -25q34 0 65 21t58 57t49 84t39 100.5
t28.5 107t17.5 104.5z" />
    <glyph glyph-name="Y" unicode="Y" horiz-adv-x="630" 
d="M-77 718q-33 -62 -33 -142q0 -55 20.5 -109t59.5 -97.5t96.5 -70.5t132.5 -27q70 0 128 18.5t109 52.5t98 82.5t95 109.5l8 -7q-59 -72 -111.5 -122.5t-104 -82.5t-106 -46.5t-116.5 -14.5q-77 0 -136.5 28t-100 73t-61.5 101t-21 112q0 39 8.5 76.5t26.5 69.5zM637 527
q-15 -53 -37 -116.5t-47 -128.5t-51.5 -126.5t-50.5 -109.5l-8 4q23 46 48.5 107l50.5 125.5t47 128.5t38 118z" />
    <glyph glyph-name="Z" unicode="Z" horiz-adv-x="1000" 
d="M189 558q6 0 12 0.5t12 0.5q42 1 92.5 2t103.5 1q66 0 128.5 -2.5t107.5 -9.5l-2 -10q-45 7 -107 9.5t-127 2.5q-53 0 -103.5 -1t-92.5 -2q-6 0 -12 -0.5t-12 -0.5v10zM643 540q-31 -13 -85.5 -38.5t-118 -60t-129.5 -76.5t-119 -87.5t-87 -93.5t-34 -94q0 -32 13.5 -55
t36.5 -38t54 -22t67 -7q32 0 81.5 2t113 9t138.5 20.5t157.5 35.5t170.5 54.5t177 78.5l4 -8q-135 -69 -266 -109.5t-243 -61t-198.5 -26t-134.5 -5.5q-38 0 -71 7.5t-57.5 23.5t-38.5 41t-14 60q0 48 34 97t88 95.5t120.5 89t130.5 77.5t119 61t87 39z" />
    <glyph glyph-name="X" unicode="X" horiz-adv-x="786" 
d="M1079 542q-98 -25 -218.5 -75t-251.5 -119t-266 -153t-263.5 -177t-243.5 -191t-205 -194l-8 6q68 73 150.5 146.5t174.5 145.5t190.5 141t199.5 131.5t201 118t195 100.5t182 78t161 52zM182 571l70 -66.5l92.5 -89.5l106 -104l110.5 -110l105.5 -107.5l90.5 -96.5
l-8 -6l-90.5 96.5l-105 107l-110 109.5l-105.5 103.5l-92 89l-70 66.5z" />
    <glyph glyph-name="ampersand" unicode="&#x26;" horiz-adv-x="438" 
d="M454 -51q-50 20 -97 59t-84.5 88.5t-60 105.5t-22.5 109q0 59 12.5 104t32 76t43.5 46.5t47 15.5q26 0 36.5 -15.5t10.5 -35.5q0 -16 -15 -39.5t-38.5 -50.5t-52.5 -56.5l-57 -56.5l-59 -60.5t-52.5 -58.5t-37.5 -52t-14 -40q0 -17 6.5 -28.5t18 -18t26 -9t31.5 -2.5
q26 0 53 4.5t47 9.5l2 -10q-20 -5 -47.5 -9.5t-54.5 -4.5q-19 0 -35.5 3t-29 10.5t-20 21t-7.5 33.5q0 19 14.5 44t38.5 53.5t54.5 59.5l61.5 62l58 57.5t50 54t35.5 47t13.5 36.5q0 16 -8.5 28.5t-28.5 12.5q-21 0 -43.5 -15t-40.5 -44.5t-29.5 -72.5t-11.5 -100
q0 -52 22 -106t58.5 -102.5t83 -86.5t94.5 -57z" />
    <glyph glyph-name="zero" unicode="0" horiz-adv-x="269" 
d="M238 429q-22 -21 -55.5 -60.5t-64.5 -88.5t-53.5 -102.5t-22.5 -102.5t32 -49q16 0 40 21t46.5 54.5t38 75.5t15.5 84q0 23 -4.5 38t-10.5 24.5t-12 14t-8 5.5l4 10q3 -1 10 -6t13.5 -15.5t12 -28t5.5 -42.5q0 -44 -16.5 -87.5t-40 -78.5t-49 -57t-44.5 -22
q-20 0 -31 13.5t-11 45.5q0 51 22.5 105.5t54.5 104t66 90t57 62.5z" />
    <glyph glyph-name="one" unicode="1" horiz-adv-x="284" 
d="M33 397q11 15 28.5 36l35 41.5l32.5 37.5t22 23l6 -8q-7 -6 -22 -22.5l-32 -37l-34 -41t-28 -35.5zM157 527q8 -54 10 -131.5t2 -159.5q0 -63 -0.5 -121.5t-2.5 -103.5h-10q2 45 2.5 103.5t0.5 121.5q0 81 -2 158t-10 131z" />
    <glyph glyph-name="two" unicode="2" horiz-adv-x="312" 
d="M31 464q11 17 26.5 32.5t42.5 15.5q15 0 28.5 -7t23.5 -26t15.5 -51.5t5.5 -84.5q0 -51 -13 -106t-30 -102.5t-32.5 -82t-20.5 -44.5l-10 4q5 10 20.5 44.5t32.5 81.5t30 101t13 104q0 49 -5 80t-13.5 48.5t-20 24t-24.5 6.5q-23 0 -37 -14.5t-24 -29.5zM73 18l39.5 17
t61 29.5t68.5 38t63 43.5l6 -8q-29 -23 -64.5 -44.5t-69 -39t-61 -29.5l-39.5 -17z" />
    <glyph glyph-name="three" unicode="3" horiz-adv-x="395" 
d="M14 443q23 6 60 14.5t79 17t86 15.5t82 11v-10q-37 -4 -80.5 -11t-85.5 -15.5t-79 -17t-60 -14.5zM322 491q-6 -6 -16.5 -15.5l-24 -21.5l-28.5 -24.5l-29 -24.5l-27.5 -23.5l-21.5 -18.5l-6 8l21 18l28 24l29 24.5l28.5 24l23.5 20.5t15 15zM183 369q7 -8 28 -17.5
t48 -19.5l42 -16t38 -18t28 -22t11 -27q0 -37 -28 -65.5t-66 -49.5t-76.5 -34.5t-60.5 -19.5l-2 10q21 6 58.5 19t74 32.5t63.5 46.5t27 61q0 10 -11 20t-28 19.5t-36.5 18t-37.5 15.5q-27 10 -49.5 20t-30.5 21z" />
    <glyph glyph-name="four" unicode="4" horiz-adv-x="231" 
d="M130 27q3 7 5.5 20t4.5 27t3.5 27t1.5 19h10q0 -7 -1.5 -20.5t-3.5 -28t-4.5 -28t-5.5 -20.5zM165 547q-18 -32 -35.5 -79t-31 -98t-22 -99.5t-8.5 -82.5q0 -45 15.5 -58.5t33.5 -13.5q8 0 15.5 1t12.5 3l2 -10q-5 -2 -13 -3t-17 -1q-11 0 -21.5 3t-18.5 12t-13.5 25
t-5.5 42q0 34 8.5 83t22.5 100.5t31.5 99t36.5 80.5z" />
    <glyph glyph-name="five" unicode="5" horiz-adv-x="286" 
d="M359 534q-19 4 -54.5 8t-73 7t-70.5 4t-47 1v10q14 0 47 -1t71.5 -4t74 -7t54.5 -8zM124 558l27.5 -70.5t29.5 -83.5t24 -85t10 -73q0 -41 -15 -71.5t-41 -52.5t-61 -35.5t-74 -20.5l-2 10q38 6 71.5 19t58 34t39 50t14.5 67q0 30 -10 71t-24 83.5t-29.5 83l-27.5 70.5z
" />
    <glyph glyph-name="six" unicode="6" horiz-adv-x="350" 
d="M324 588q-42 -28 -89 -74t-87.5 -101.5t-67 -115.5t-26.5 -116q0 -29 7 -50t18.5 -34.5t25 -19.5t27.5 -6q17 0 31.5 6.5t14.5 17.5q0 8 -16 14t-39 6q-11 0 -23 -2.5t-24 -7.5l-4 10q12 5 25.5 7.5t25.5 2.5q28 0 46.5 -9.5t18.5 -20.5q0 -15 -17 -24.5t-39 -9.5
q-15 0 -30.5 6.5t-28.5 21t-21 37.5t-8 55q0 57 27 118.5t67.5 117.5t89 103t90.5 76z" />
    <glyph glyph-name="seven" unicode="7" horiz-adv-x="312" 
d="M9 449l51.5 20.5t64.5 20.5t76 14.5t87 2.5v-10q-45 3 -85 -2.5t-74.5 -14.5t-64 -20.5l-51.5 -20.5zM288 497q-88 -103 -142 -228t-57 -257h-10q3 134 57 260t144 231z" />
    <glyph glyph-name="eight" unicode="8" horiz-adv-x="290" 
d="M105 9q-23 0 -42 19.5t-19 54.5q0 39 20 86t44 96q26 52 47 102t21 92q0 22 -6.5 37.5t-16 25t-21.5 13.5t-22 4q-33 0 -33 -35q0 -17 15.5 -40t38.5 -53l39.5 -52.5t37.5 -61t28 -67.5t11 -73q0 -43 -14 -71.5t-35 -45.5t-46 -24t-47 -7zM105 -1q23 0 50 7.5t49.5 25.5
t37.5 48.5t15 76.5q0 38 -11.5 74.5t-29 69.5t-38.5 62.5l-39 53.5q-20 26 -36 49.5t-16 37.5q0 25 23 25q18 0 37 -16t19 -54q0 -42 -21 -91.5t-45 -98.5l-25 -50t-21 -49t-14.5 -46t-5.5 -41q0 -39 22 -61.5t49 -22.5z" />
    <glyph glyph-name="nine" unicode="9" horiz-adv-x="220" 
d="M171 408q-9 11 -21.5 23t-27 22.5t-30 17.5t-29.5 7q-17 0 -17 -22q0 -17 15.5 -37t43.5 -29q22 -5 44.5 -1t42.5 12l4 -10q-21 -8 -45 -13t-48 2q-35 10 -51 33t-16 43q0 14 6 23t21 9t31.5 -7t32 -18t29.5 -24t23 -25zM196 391l-22.5 -67.5l-35 -100l-40.5 -111
t-40 -100.5l-10 4q13 30 27 66l28 73l27 73.5l24 68.5l19 57t13 39z" />
    <glyph glyph-name="question" unicode="?" horiz-adv-x="372" 
d="M98 402q-9 25 -9 55q0 37 13.5 75t35 68.5t50 50t58.5 19.5q22 0 35 -6.5t20.5 -16.5t10 -22.5t2.5 -24.5q0 -31 -19.5 -72t-47.5 -83t-59 -81l-54 -67q-11 -12 -18 -22t-11 -15l-8 6q4 5 11 14.5t18 22.5l52.5 65t58.5 79t47.5 81.5t19.5 71.5q0 10 -2 21t-8 19.5
t-17.5 14t-30.5 5.5q-28 0 -54.5 -18.5t-47 -47.5t-33 -65t-12.5 -72q0 -27 9 -51zM105 270q6 0 21 0.5t35 1.5t43 2.5t47 4.5l2 -10q-24 -3 -47.5 -4.5t-44 -2.5t-35.5 -1.5t-21 -0.5v10zM148 53q-2 -10 3.5 -19t19.5 -11l-2 -10q-18 2 -25.5 15t-5.5 27z" />
    <glyph glyph-name="exclam" unicode="!" horiz-adv-x="326" 
d="M200 641q15 -86 15 -180q0 -87 -9.5 -166.5t-20.5 -139.5l-10 2q11 60 20.5 139.5t9.5 164.5q0 91 -15 178zM140 32q11 9 21 10.5t19 -2.5l-1 -11q-7 2 -15 2.5t-18 -7.5z" />
    <glyph glyph-name="period" unicode="." horiz-adv-x="346" 
d="M148 53q-2 -10 3.5 -19t19.5 -11l-2 -10q-18 2 -25.5 15t-5.5 27z" />
    <glyph glyph-name="hungarumlaut" unicode="&#x2dd;" horiz-adv-x="366" 
d="M83 262q6 9 19 24l27 30.5l27.5 29.5l20.5 21l6 -8l-20 -20.5l-27 -29l-26.5 -30t-18.5 -23.5zM133 261l29 30.5l40 40l40 38.5l29 27l6 -8l-28.5 -27l-39 -38l-39.5 -39t-29 -30z" />
    <glyph glyph-name="dieresis" unicode="&#xa8;" horiz-adv-x="386" 
d="M77 371q2 -9 12.5 -15t18.5 -6v-10q-11 0 -24.5 8.5t-16.5 20.5zM161 388q23 0 40 -20l-8 -6q-13 16 -32 16v10z" />
    <glyph glyph-name="acute" unicode="&#xb4;" horiz-adv-x="366" 
d="M119 311q16 9 37 22.5l43.5 29l45.5 31.5l44 31l6 -8l-86 -60t-86 -54z" />
    <glyph glyph-name="Ohungarumlaut" unicode="&#x150;" horiz-adv-x="833" 
d="M717 479q-31 17 -69.5 26.5t-92.5 9.5q-51 0 -107.5 -14.5t-111 -40t-104 -60t-87.5 -73.5t-60 -80.5t-22 -82.5q0 -42 21.5 -69t57 -43t81 -22t92.5 -6q55 0 113.5 8t113.5 23.5t103.5 38.5t85 53.5t58 68.5t21.5 84q0 52 -25.5 85t-62.5 52t-78.5 26t-73.5 7v10
q34 0 77 -7.5t81.5 -27.5t65 -55t26.5 -90q0 -47 -22 -86.5t-59 -71t-87 -56t-106 -40.5t-115.5 -24t-115.5 -8q-49 0 -96 6.5t-84 23.5t-59.5 46t-22.5 74q0 42 22.5 85t61 83t89 75t106.5 61.5t113.5 41.5t109.5 15q55 0 94.5 -10t71.5 -28zM404 564q6 9 19 24l27 30.5
l27.5 29.5l20.5 21l6 -8l-20 -20.5l-27 -29l-26.5 -30t-18.5 -23.5zM454 563l29 30.5l40 40l40 38.5l29 27l6 -8l-28.5 -27l-39 -38l-39.5 -39t-29 -30z" />
    <glyph glyph-name="Uhungarumlaut" unicode="&#x170;" horiz-adv-x="808" 
d="M402 600q6 9 19 24l27 30.5l27.5 29.5l20.5 21l6 -8l-20 -20.5l-27 -29l-26.5 -30t-18.5 -23.5zM452 599l29 30.5l40 40l40 38.5l29 27l6 -8l-28.5 -27l-39 -38l-39.5 -39t-29 -30zM299 588q-37 -40 -76.5 -97.5t-72 -121t-53.5 -127.5t-21 -118q0 -35 10 -56.5t24 -33
t29 -15.5t25 -4q56 0 115 27.5t117.5 73t114 105.5t104.5 125t90 130.5t69 123.5l8 -4q-28 -58 -69.5 -124.5t-91.5 -132t-106.5 -126t-115.5 -107t-119 -74t-116 -27.5q-12 0 -28.5 4.5t-32 17t-26.5 36t-11 61.5q0 55 21 120t54 129.5t72.5 122t77.5 98.5zM776 584
q-75 -139 -116 -247t-41 -166q0 -31 21 -54.5t56 -23.5q22 0 47 7t50 17.5t48.5 24t42.5 27.5l6 -8q-20 -14 -44 -28t-50 -25t-52 -18t-48 -7q-40 0 -63.5 26.5t-23.5 61.5q0 58 41 167t118 250z" />
    <glyph glyph-name="ohungarumlaut" unicode="&#x151;" horiz-adv-x="352" 
d="M84 167q-6 -25 0 -62q8 -34 33 -53.5t54 -19.5q16 0 9 20q-3 11 -12 25.5t-20.5 28t-23 24.5t-20.5 16l4 8q10 -5 23.5 -17.5t26.5 -28.5t22.5 -32.5t11.5 -29.5q2 -11 -2.5 -17.5t-18.5 -6.5q-32 0 -60 21.5t-37 59.5q-6 38 0 67zM439 162q-43 -14 -97 -21t-109 -7
q-32 0 -66.5 3t-62.5 9l4 8q28 -6 61 -8t64 -2q54 0 106.5 7t95.5 21zM79 262q6 9 19 24l27 30.5l27.5 29.5l20.5 21l6 -8l-20 -20.5l-27 -29l-26.5 -30t-18.5 -23.5zM129 261l29 30.5l40 40l40 38.5l29 27l6 -8l-28.5 -27l-39 -38l-39.5 -39t-29 -30z" />
    <glyph glyph-name="uhungarumlaut" unicode="&#x171;" horiz-adv-x="371" 
d="M165 283q6 9 19 24l27 30.5l27.5 29.5l20.5 21l6 -8l-20 -20.5l-27 -29l-26.5 -30t-18.5 -23.5zM215 282l29 30.5l40 40l40 38.5l29 27l6 -8l-28.5 -27l-39 -38l-39.5 -39t-29 -30zM90 168q-7 -16 -12.5 -35t-5.5 -39q0 -29 16.5 -43t45.5 -14q21 0 48 13.5t55 34t55 45
t48 47.5l8 -6q-22 -24 -49.5 -49.5t-56.5 -46.5t-57 -34.5t-51 -13.5q-33 0 -52.5 16.5t-19.5 50.5q0 21 6.5 41.5t12.5 34.5zM348 171q-6 -15 -8 -30.5t-0.5 -43t11.5 -59.5l-10 -3q-11 36 -12 62t1 43t10 37z" />
    <glyph glyph-name="numbersign" unicode="#" horiz-adv-x="590" 
d="M168 232q11 1 36.5 2.5t58 4l68 5l68 5l58 4.5t37.5 4l2 -10q-12 -2 -37.5 -4l-58 -4.5t-68.5 -5t-68.5 -5t-58.5 -4t-37 -2.5v10zM82 160q21 0 60 1.5t86 3.5t97.5 5t94.5 7v-10q-44 -4 -94.5 -7t-97.5 -5t-86 -3.5t-60 -1.5v10zM289 353l-37.5 -84.5l-31.5 -74
l-29.5 -75l-32.5 -86.5l-10 4l32.5 86.5l29.5 75l31.5 74l37.5 84.5zM395 353q-18 -38 -33.5 -75t-31 -78l-31.5 -87.5l-35 -102.5l-10 4l35 102.5l31.5 87.5t31 78t33.5 75z" />
    <glyph glyph-name="colon" unicode=":" horiz-adv-x="346" 
d="M163 329q2 -8 12.5 -9t18.5 5l6 -8q-11 -10 -27 -7t-20 17zM148 53q-2 -10 3.5 -19t19.5 -11l-2 -10q-18 2 -25.5 15t-5.5 27z" />
    <glyph glyph-name="comma" unicode="," horiz-adv-x="322" 
d="M180 73q-1 -15 -3 -34.5t-6 -40.5t-11.5 -42t-18.5 -40l-8 6q10 18 17 38t11 40t6 39t3 34h10z" />
    <glyph glyph-name="semicolon" unicode=";" horiz-adv-x="322" 
d="M163 329q2 -8 12.5 -9t18.5 5l6 -8q-11 -10 -27 -7t-20 17zM180 73q-1 -15 -3 -34.5t-6 -40.5t-11.5 -42t-18.5 -40l-8 6q10 18 17 38t11 40t6 39t3 34h10z" />
    <glyph glyph-name="quotesingle" unicode="'" horiz-adv-x="322" 
d="M183 709q0 -36 -8 -79.5t-25 -86.5l-10 4q17 43 25 85t8 77h10z" />
    <glyph glyph-name="quotedbl" unicode="&#x22;" horiz-adv-x="366" 
d="M195 704q-6 -47 -17.5 -84.5t-28.5 -77.5l-10 4q17 38 28 74.5t18 83.5h10zM279 701q-5 -17 -12.5 -39.5l-15.5 -46t-17 -45.5t-18 -37l-8 6q8 14 16.5 35l17 44t15.5 45.5l12 39.5z" />
    <glyph glyph-name="grave" unicode="`" horiz-adv-x="322" 
d="M14 401l83.5 -45.5t89.5 -42.5l-4 -10q-44 19 -85.5 41t-87.5 49z" />
    <glyph glyph-name="circumflex" unicode="&#x2c6;" horiz-adv-x="268" 
d="M119 302q20 6 48 18.5t53 22.5q9 -11 22.5 -26t27.5 -26l-6 -8q-14 10 -26.5 22.5t-21.5 23.5q-22 -10 -48 -20.5t-45 -16.5z" />
    <glyph glyph-name="cedilla" unicode="&#xb8;" horiz-adv-x="341" 
d="M112 -27l9.5 14l11.5 16t11 15.5t8 12.5l8 -6q-5 -8 -15.5 -23l-18.5 -27q9 2 21 2.5t24 0.5q17 0 30.5 -3t16.5 -10t-6.5 -16t-26.5 -18t-39 -16t-44 -10l-2 10q22 3 42 9.5t34.5 13.5t23 13.5t8.5 9.5q0 4 -11.5 5.5t-25.5 1.5q-16 0 -32.5 -2t-24.5 -4z" />
    <glyph glyph-name="guillemotleft" unicode="&#xab;" horiz-adv-x="346" 
d="M64 165q6 7 15 19.5l18 25.5l17 24.5t11 16.5l8 -6q-3 -5 -9.5 -15t-15 -21.5l-17 -23t-14.5 -20.5l16.5 -16l21.5 -20.5l21.5 -20t16.5 -13.5l-6 -8q-6 5 -17 15l-23 21l-23 21.5t-16 16.5zM168 161l11 20t11 22q6 11 10.5 21.5t8.5 16.5l8 -6q-4 -6 -9 -15.5t-10 -20.5
l-9 -17.5l-9 -17.5q20 -16 38 -32.5l28 -25.5l-8 -8l-30.5 29.5t-35.5 30.5z" />
    <glyph glyph-name="guillemotright" unicode="&#xbb;" horiz-adv-x="346" 
d="M242 161q-5 -6 -16 -16.5l-23 -21.5l-23 -21t-17 -15l-6 8q6 4 16.5 13.5l21.5 20l21.5 20.5l16.5 16q-6 9 -14.5 20.5l-17 23t-15 21.5t-9.5 15l8 6q3 -5 11 -16.5l17 -24.5l18 -25.5t15 -19.5zM138 158q-8 -6 -17.5 -14t-18.5 -16.5l-16.5 -16l-13.5 -13.5l-8 8
l28 25.5t38 32.5l-9 17.5l-9 17.5q-5 11 -10 20.5t-9 15.5l8 6q4 -6 8.5 -16.5t10.5 -21.5q5 -11 11 -22l11 -20z" />
    <glyph glyph-name="germandbls" unicode="&#xdf;" horiz-adv-x="342" 
d="M24 -192q5 110 22.5 215.5t43.5 197.5t60 165t72 117l8 -6q-38 -44 -71.5 -116t-59.5 -163t-43 -196t-22 -214h-10zM230 497q9 -9 20.5 -25t21.5 -36.5t16.5 -44.5t6.5 -48q0 -23 -7.5 -48t-22 -49.5t-36.5 -46.5t-50 -40l-6 8q56 34 84 83t28 93q0 24 -6.5 47t-16 42.5
t-20 34.5t-19.5 23zM172 167q15 -3 32.5 -7.5t32 -11t24 -15t9.5 -19.5t-12 -24.5t-30 -26.5t-39.5 -24t-40.5 -17l-2 10q17 6 37 16t37 21.5t28.5 23.5t11.5 21q0 8 -9 15t-22.5 12t-29 9t-29.5 7z" />
    <glyph glyph-name="currency" unicode="&#xa4;" horiz-adv-x="498" 
 />
    <glyph glyph-name="asciitilde" unicode="~" horiz-adv-x="588" 
d="M142 188q10 16 26 34t34 33t37 24.5t36 9.5q19 0 33.5 -16t28.5 -35q11 -16 22.5 -29t22.5 -13q13 0 25 8t21 19t15.5 22.5t9.5 19.5l10 -4q-3 -8 -10.5 -21t-18 -25t-24 -20.5t-28.5 -8.5t-28 14.5t-25 31.5q-13 17 -26 32t-28 15t-33 -9.5t-35 -23.5t-32 -31t-25 -33z
" />
    <glyph glyph-name="Thorn" unicode="&#xde;" horiz-adv-x="467" 
d="M269 711l-31 -102.5l-38.5 -126.5l-42 -138.5l-41 -138.5l-36.5 -125.5t-28 -100.5l-10 2q11 42 28 100.5l36.5 125.5l41 138.5l42 138.5l38.5 126.5l31 102.5zM49 10q37 105 93 188.5t116.5 141t119 88.5t99.5 31q75 0 75 -73q0 -26 -16.5 -51t-43 -47.5t-59.5 -41.5
t-65.5 -32.5t-61.5 -21.5t-47 -8q-38 0 -38 23q0 13 7.5 23.5t17.5 16.5l6 -8q-8 -5 -14.5 -13t-6.5 -19q0 -13 28 -13q18 0 46 7.5t59.5 20.5t63 31.5t57 39.5t41.5 45t16 48q0 33 -16.5 48t-48.5 15q-40 0 -96.5 -30.5t-116 -87.5t-114.5 -139.5t-91 -185.5z" />
    <glyph glyph-name="thorn" unicode="&#xfe;" horiz-adv-x="343" 
d="M161 474q-9 -34 -21.5 -87.5l-26.5 -116l-28.5 -128.5l-27.5 -125.5l-23 -107.5t-15 -74l-10 2q5 26 15 74l23 107.5l27.5 125.5l28.5 128.5l26.5 116t21.5 87.5zM10 -152q12 38 29.5 81.5t39 85.5t46.5 80.5t51 67.5t53 46.5t53 17.5q36 0 36 -47q0 -12 -9 -26
t-24.5 -26t-35.5 -19.5t-41 -5.5v10q19 -2 37 4.5t32 17t22.5 23t8.5 22.5q0 37 -26 37q-25 0 -50.5 -17t-50.5 -46t-49 -66.5t-45 -79t-38 -84t-29 -80.5z" />
    <glyph glyph-name="multiply" unicode="&#xd7;" horiz-adv-x="379" 
d="M70 113l25 22.5l36 32.5l45 40.5l47 42.5l42 39.5l31 30.5l8 -6q-13 -14 -32.5 -32.5l-42.5 -39.5l-47 -42.5l-45 -40.5l-36 -32.5l-25 -22.5zM110 284q12 -14 28.5 -30.5t37.5 -34t47 -33.5t56 -29l-4 -10q-62 26 -105 64t-68 67z" />
    <glyph glyph-name="eth" unicode="&#xf0;" horiz-adv-x="289" 
d="M77 322q9 2 18 3.5t20 1.5q24 0 47.5 -8t42.5 -23.5t30.5 -39.5t11.5 -57q0 -34 -14.5 -64t-37 -53t-48.5 -36.5t-48 -13.5q-60 0 -60 52q0 21 11.5 43t30 40t41.5 29.5t46 11.5t39 -11.5t23 -24.5l-8 -4q-5 11 -19 20.5t-35 9.5q-22 0 -43 -10.5t-38 -27t-27.5 -36.5
t-10.5 -40q0 -42 50 -42q21 0 45 12.5t45 34.5t34.5 50t13.5 60q0 30 -10.5 52.5t-28 37t-39.5 21.5t-44 7q-16 0 -36 -5zM78 235q71 21 142 47t143 57l3 -8q-69 -30 -141 -56.5t-145 -48.5z" />
    <glyph glyph-name="asterisk" unicode="*" horiz-adv-x="562" 
d="M74 550q17 -5 53.5 -14t87.5 -18.5t114 -16.5t132 -7h27t27 1v-10q-14 -1 -27 -1h-27q-70 0 -133.5 7t-114.5 16.5t-87.5 18.5t-53.5 14zM207 575q16 -22 33.5 -58.5t31.5 -69.5l-10 -4q-14 34 -31.5 70t-31.5 56zM307 642q-23 -57 -46 -121.5t-36 -127.5l-10 2
q14 66 36.5 130t45.5 121zM140 440q13 8 23 15l19 13l32 20.5t35 24.5l6 -8q-20 -15 -35 -24.5l-32 -20.5l-19 -13t-23 -15z" />
    <glyph glyph-name="copyright" unicode="&#xa9;" horiz-adv-x="589" 
d="M495 381q1 34 -4.5 70t-22.5 66t-48 49.5t-80 19.5q-56 0 -98 -21t-71 -55t-43.5 -77t-14.5 -88q0 -29 5.5 -63t20.5 -64t42.5 -50t71.5 -20q54 0 98.5 20.5t76 54t49 75t18.5 83.5zM505 381q-1 -42 -19.5 -85t-51.5 -78.5t-79 -57.5t-102 -22q-47 0 -76 21t-45.5 52.5
t-22.5 67.5t-6 66q0 45 15.5 89.5t45.5 80.5t74 58.5t102 22.5q53 0 85.5 -20.5t50.5 -52t24 -69.5t5 -73zM322 390q-2 15 -14 29.5t-26 14.5t-25.5 -23.5t-11.5 -58.5q0 -18 5 -38.5t15 -37.5t23.5 -28.5t31.5 -11.5q17 0 28.5 4.5t18.5 10.5q8 6 13 15l10 -4
q-5 -10 -15 -18q-8 -7 -21.5 -12.5t-33.5 -5.5t-35.5 12.5t-26.5 31t-17 40.5t-6 42q0 40 14 66t33 26q18 0 33 -18t17 -36h-10z" />
    <glyph glyph-name="registered" unicode="&#xae;" horiz-adv-x="589" 
d="M495 381q1 34 -4.5 70t-22.5 66t-48 49.5t-80 19.5q-56 0 -98 -23.5t-71 -59.5t-43.5 -78.5t-14.5 -79.5q0 -29 5.5 -63t20.5 -64t42.5 -50t71.5 -20q54 0 98.5 20.5t76 53.5t49 75t18.5 84zM505 381q-1 -47 -19.5 -91t-51.5 -77.5t-79 -54t-102 -20.5q-47 0 -76 21
t-45.5 52.5t-22.5 67.5t-6 66q0 38 15.5 82t45.5 81.5t74 62.5t102 25q53 0 85.5 -20.5t50.5 -52t24 -69.5t5 -73zM246 266q-5 33 -7 58.5t-2 58.5q0 25 9 47t23.5 38.5t31 26.5t31.5 10q18 0 24 -13.5t6 -28.5q0 -12 -8 -24t-21.5 -21.5t-30.5 -14.5t-34 -3l2 10
q15 -2 29.5 2.5t26.5 12t19 18t7 20.5q0 12 -4 22t-16 10q-14 0 -28.5 -9t-27.5 -24t-21 -35.5t-8 -43.5q0 -32 2 -57t7 -58zM388 252l-21 -12q-23 14 -41.5 37t-32 47.5t-22 47t-11.5 36.5l10 2q3 -13 11 -34.5t20.5 -45t29.5 -45.5t38 -35q4 2 7.5 5t7.5 5z" />
    <glyph glyph-name="uni0025" unicode="%" horiz-adv-x="392" 
d="M327 444q-6 -10 -13 -20.5l-15 -22.5l-52.5 -82.5t-56.5 -95t-52.5 -100.5t-39.5 -100l-10 4q15 47 39 98t52.5 101.5t58 96.5l53.5 84l15 22.5t13 20.5zM158 319q-11 0 -14 -10l-10 4q4 16 24 16v-10zM324 243q-5 0 -12.5 -2t-10.5 -10l-10 4q5 11 15 14.5t18 3.5v-10z
" />
    <glyph glyph-name="oe" unicode="&#x153;" horiz-adv-x="580" 
d="M248 134q-3 -13 -2 -26q-1 -70 91 -75q141 1 322 136l6 -8q-181 -138 -328 -138q-102 2 -102 85q0 13 3 26h-5q-32 0 -67 3q-22 2 -41 5l6 -6q14 -12 27 -28t22.5 -32.5t11.5 -29.5q2 -11 -2.5 -17.5t-18.5 -6.5q-32 0 -60 21.5t-37 59.5q-6 38 0 67l10 -3q-6 -25 0 -62
q8 -34 33 -53.5t54 -19.5q16 0 9 20q-3 11 -12 25.5t-20.5 28t-23 24.5t-20.5 16l4 8q28 -6 61 -8t64 -2h8q2 6 4 11q11 23 24.5 36t27 18.5t19.5 5.5q17 0 28 -6t11 -20.5t-22 -34t-85 -20.5zM345 187q-1 12 -8.5 15t-20.5 3q-5 0 -17 -5t-24 -17t-21 -33q-2 -3 -3 -6
q81 -3 94 43z" />
    <glyph glyph-name="sterling" unicode="&#xa3;" horiz-adv-x="467" 
d="M425 325q3 12 5 24.5t2 25.5q0 37 -12.5 75t-35.5 68.5t-56 49.5t-74 19q-38 0 -61.5 -27t-23.5 -68q0 -24 5.5 -50.5t14.5 -54t20 -54l22 -50.5q17 -37 29 -69t12 -55q0 -27 -17.5 -50t-45.5 -41.5t-61.5 -32t-65.5 -19.5l-2 10q30 6 62.5 18.5t59 30t43.5 39t17 45.5
q0 20 -12 51t-29 69q-22 50 -42 105t-20 108q0 45 26 75t69 30t78 -20t59.5 -52t37.5 -71.5t13 -78.5q0 -14 -2 -27t-5 -25zM82 26q11 0 29 -0.5t40 -0.5q23 0 47.5 -0.5t47.5 -0.5q29 0 53.5 0.5t33.5 1.5q10 2 15 10t3 13l8 6q2 -4 1.5 -10t-3.5 -12t-8.5 -11t-13.5 -6
q-6 -1 -30.5 -1.5t-58.5 -0.5q-23 0 -47.5 0.5t-47.5 0.5q-22 0 -40 0.5t-29 0.5v10zM106 156q11 -1 34 -0.5t52 0.5q17 0 33.5 0.5t33.5 0.5q23 0 44.5 -0.5t35.5 -1.5v-10q-14 1 -35.5 1.5t-44.5 0.5q-17 0 -33.5 -0.5t-33.5 -0.5q-29 0 -52 -0.5t-34 0.5v10z" />
    <glyph glyph-name="cent" unicode="&#xa2;" horiz-adv-x="332" 
d="M208 335l-12 -49l-17.5 -74.5l-19.5 -87.5l-19 -88t-15.5 -76t-8.5 -51l-10 2q2 17 8.5 51t15.5 76l19 88l19.5 87.5l17.5 74.5l12 49zM410 162q-19 11 -46 20q-23 8 -57 14.5t-79 6.5q-41 0 -77 -11t-63 -28.5t-42.5 -40.5t-15.5 -47q0 -22 28 -33.5t69 -11.5q35 0 74 9
t73 28l4 -8q-35 -20 -75.5 -29.5t-75.5 -9.5q-45 0 -76 14.5t-31 40.5t16 51t44.5 44t66 30.5t81.5 11.5q45 0 80 -7t59 -15q28 -10 49 -21z" />
    <glyph glyph-name="dollar" unicode="$" horiz-adv-x="539" 
d="M495 217q0 31 -10.5 64.5t-29.5 61.5t-45.5 46t-58.5 18q-17 0 -29 -6t-20 -15t-11.5 -19.5t-3.5 -19.5q0 -36 12.5 -66t31.5 -54t41 -42.5t41 -32.5q23 -16 39 -30.5t16 -29.5q0 -20 -24 -32t-56.5 -18.5t-66.5 -8.5t-55 -2q-27 0 -60 2.5t-61.5 8.5t-48 17t-19.5 28
q0 13 9 23.5t21 17t25.5 9.5t22.5 2l-2 -10q-8 1 -19 -1t-21.5 -7.5t-18 -14t-7.5 -19.5q0 -14 20.5 -23t49 -14t59 -7t50.5 -2t52.5 1.5t63.5 6.5t53.5 15.5t22.5 27.5q0 11 -14.5 24t-36.5 28q-20 14 -43 34t-42.5 45.5t-32 56.5t-12.5 67q0 11 4 23t13 22.5t23 17.5t34 7
q34 0 62.5 -19t49 -48.5t31.5 -65t11 -67.5h-10zM430 567q-16 -43 -30 -105t-24.5 -133t-16.5 -145t-6 -140q0 -28 1 -54t4 -49l-10 -2q-3 23 -4 49.5t-1 55.5q0 67 6 141.5t16.5 146t24.5 134t30 105.5z" />
    <glyph glyph-name="Euro" unicode="&#x20ac;" horiz-adv-x="389" 
d="M423 393q-19 15 -36.5 24.5t-51.5 9.5q-28 0 -56.5 -16t-56 -42t-51.5 -59.5t-42 -68.5t-28.5 -68.5t-10.5 -59.5q0 -38 22.5 -59t68.5 -21q48 0 100.5 23.5t114.5 80.5l6 -8q-63 -59 -117.5 -82.5t-103.5 -23.5q-51 0 -76 23.5t-25 66.5q0 27 11 61.5t30 70.5t44 70.5
t53.5 61.5t58 43.5t58.5 16.5q36 0 55 -9.5t39 -26.5zM7 281q14 -1 28.5 -1.5t28.5 -0.5q42 0 85.5 3.5t91.5 9.5l2 -10q-48 -6 -91.5 -9.5t-87.5 -3.5q-14 0 -28.5 0.5t-28.5 1.5v10zM11 211q24 -3 52 -3q32 0 72 4t94 14l2 -10q-54 -10 -94 -14t-74 -4q-30 0 -54 3z" />
    <glyph glyph-name="trademark" unicode="&#x2122;" horiz-adv-x="587" 
d="M515 486q-1 14 -1.5 34t-1.5 40.5t-1.5 40t-0.5 32.5q-6 -11 -14.5 -23.5t-18 -24t-20 -20t-21.5 -11.5q-12 -2 -25 1.5t-26 10t-24.5 15t-19.5 15.5q0 -75 12 -157l-10 -2q-7 40 -10 82t-4 92q-27 -3 -65.5 -8.5t-78.5 -13l-77 -15t-62 -13.5l-2 10q25 6 63 14
t78.5 15.5t79.5 13.5t67 8q6 -7 17.5 -18t26 -20.5t30 -16t28.5 -3.5q10 3 20.5 12.5t20 21t17.5 24t13 21.5q2 4 3.5 7.5t3.5 5.5l8 -6q0 -7 0.5 -27t1 -45t1.5 -50t2 -42h-10zM235 583q6 -20 11.5 -53.5t5.5 -75.5q0 -28 -3 -56l-10 2q3 28 3 54q0 41 -5.5 74t-11.5 53z
" />
    <glyph glyph-name="less" unicode="&#x3c;" horiz-adv-x="305" 
d="M253 273q-14 -8 -37 -23.5l-47 -33l-46 -35t-34 -29.5l-8 8q11 11 33 28.5t46.5 35l48 33.5t38.5 24zM197 102q-9 2 -26 8.5l-36 14t-35.5 15.5t-24.5 13l6 8q8 -5 24 -12.5t34 -15t34.5 -13.5t25.5 -8z" />
    <glyph glyph-name="greater" unicode="&#x3e;" horiz-adv-x="371" 
d="M85 287q21 -4 50.5 -11t58 -15.5l52.5 -16t34 -11.5l-4 -10q-10 4 -34 11.5l-52.5 16t-57 15.5t-49.5 11zM112 135q15 6 39.5 20l50 29.5l47.5 29t31 19.5l6 -8l-32.5 -20l-48.5 -30l-50.5 -30t-38.5 -20z" />
    <glyph glyph-name="equal" unicode="=" horiz-adv-x="443" 
d="M121 265q15 -5 38.5 -8.5t50 -6t54.5 -3.5t53 0v-10q-26 -1 -54 0t-55 3.5t-50.5 6t-38.5 8.5zM110 170q15 -2 41.5 -3t57.5 -1q29 0 57.5 0.5t53.5 2.5v-10q-25 -2 -53.5 -2.5t-57.5 -0.5q-32 0 -59 1t-42 3z" />
    <glyph glyph-name="AE" unicode="&#xc6;" horiz-adv-x="1256" 
d="M26 4q72 88 162.5 178t189.5 172t201.5 152t198.5 117l4 -8q-95 -47 -197 -116t-200.5 -151t-188.5 -172t-162 -178zM790 620q-2 -8 -6.5 -23t-11 -34l-14 -41.5l-15.5 -44.5l-38 -108.5l-37.5 -113.5t-29 -99.5t-11.5 -67.5q0 -41 26 -62t69 -21q112 0 202.5 15
t164.5 39t133.5 53t109.5 57l4 -8q-51 -28 -111 -57.5t-134.5 -53.5t-165.5 -39.5t-203 -15.5q-48 0 -76.5 24t-28.5 69q0 24 11.5 70t29 101l37.5 113.5l38 108.5l15.5 46l14 42.5l11 34t6.5 19.5zM766 574q9 0 30.5 1.5t49 3t59 3.5l60.5 4t53.5 4.5t39.5 5.5l2 -10
q-14 -3 -39 -5l-54.5 -4.5t-61 -4.5t-59 -3.5t-49.5 -3t-31 -1.5v10zM250 240q10 -1 27.5 -1h33.5q42 0 101 2t127 6t140.5 9.5t143 13t134.5 16t114 18.5l2 -10q-50 -10 -114.5 -18.5t-135 -16t-143.5 -13t-140.5 -9.5t-127 -6t-101.5 -2h-33.5t-27.5 1v10z" />
    <glyph glyph-name="OE" unicode="&#x152;" horiz-adv-x="1030" 
d="M738 453q51 8 110 12.5t119 4.5q47 0 91 -2.5t83 -7.5l-2 -10q-39 5 -83 7.5t-89 2.5q-59 0 -117.5 -4.5t-109.5 -12.5zM747 235q26 0 55.5 1t58.5 2.5l56 3t48 3.5v-10q-21 -2 -48 -3.5l-56 -3t-58.5 -2.5t-55.5 -1v10zM479 34q42 1 104.5 3.5t130.5 7t134 11.5t114 16
l2 -10q-48 -9 -114 -16t-134.5 -11.5t-131.5 -7t-105 -3.5v10zM741 479q-31 17 -69.5 26.5t-92.5 9.5q-51 0 -107.5 -14.5t-111 -40t-104 -60t-87.5 -73.5t-60 -80.5t-22 -82.5q0 -42 21.5 -69t57 -43t81 -22t92.5 -6q55 0 113.5 8t113.5 23.5t103.5 38.5t85 53.5t58 68.5
t21.5 84q0 52 -25.5 85t-62.5 52t-78.5 26t-73.5 7v10q34 0 77 -7.5t81.5 -27.5t65 -55t26.5 -90q0 -47 -22 -86.5t-59 -71t-87 -56t-106 -40.5t-115.5 -24t-115.5 -8q-49 0 -96 6.5t-84 23.5t-59.5 46t-22.5 74q0 42 22.5 85t61 83t89 75t106.5 61.5t113.5 41.5t109.5 15
q55 0 94.5 -10t71.5 -28z" />
    <glyph glyph-name="braceleft" unicode="{" horiz-adv-x="273" 
d="M48 252q9 4 25.5 16t33.5 29t32 37.5t21 42.5t6 47q0 14 -1 28t-3 27q-2 20 -2.5 36.5t3.5 27.5t13.5 9t21.5 -11.5t25 -23.5t22 -27l-8 -6l-18 22.5t-19.5 21.5t-17 13t-9.5 -2q-4 -10 -3.5 -25t2.5 -34v1q2 -13 3 -27.5t1 -29.5q0 -27 -6 -49q-6 -23 -22 -44.5t-34 -39
t-35 -30t-27 -17.5zM57 252q17 -16 32.5 -43t15.5 -69q0 -27 -7.5 -54t-15.5 -50l-9.5 -28.5t-4.5 -19.5q0 -13 7 -14t13 1q2 0 3.5 0.5t3.5 0.5v-10q-2 0 -2.5 -0.5t-2.5 -0.5q-11 -2 -21.5 0t-10.5 23q0 11 4.5 23.5t9.5 28.5q8 23 15.5 49.5t7.5 50.5q0 39 -14 64.5
t-30 39.5z" />
    <glyph glyph-name="braceright" unicode="}" horiz-adv-x="270" 
d="M60 606q7 6 20.5 14l28 16t28 13.5t21.5 5.5q19 0 22 -9.5t3 -17.5t-8.5 -23.5t-22.5 -33.5l-19.5 -29.5t-19.5 -32t-14.5 -32.5t-5.5 -29q0 -45 27 -69t90 -41l-2 -10q-68 18 -96.5 44.5t-28.5 75.5q0 15 6 31.5t15 33.5t19.5 33.5t20.5 30.5q13 17 21 31t8 20
q0 5 -2 11t-13 6q-7 0 -19.5 -5t-26.5 -12.5t-26.5 -15.5t-19.5 -14zM208 328q-38 -29 -62.5 -69.5t-24.5 -88.5q0 -34 7 -66.5t14 -58.5q5 -17 8 -32t3 -26q0 -14 -10 -28t-27 -25.5t-40 -19.5t-49 -9v10q24 1 45 8t37 17t25 22.5t9 24.5q0 10 -3 24.5t-8 31.5
q-7 26 -14 58.5t-7 68.5q0 50 26 93t65 73z" />
    <glyph glyph-name="endash" unicode="&#x2013;" horiz-adv-x="576" 
d="M110 258q11 0 25.5 0.5t31.5 1.5q45 2 99 4t97 2h22.5t19.5 -1v-10q-9 1 -19.5 1h-22.5q-43 0 -97 -2t-99 -4q-17 -1 -31.5 -1.5t-25.5 -0.5v10z" />
    <glyph glyph-name="underscore" unicode="_" horiz-adv-x="481" 
d="M6 -25q18 -1 43 -1h54q67 0 152.5 2t173.5 8v-10q-88 -6 -173.5 -8t-152.5 -2h-54t-43 1v10z" />
    <glyph glyph-name="brokenbar" unicode="&#xa6;" horiz-adv-x="348" 
d="M233 774q-11 -44 -21 -112.5t-17.5 -145t-12 -151.5t-4.5 -131q0 -17 0.5 -31t1.5 -26h-10q-1 12 -1.5 26t-0.5 31q0 37 2 84t5.5 97.5t8.5 102.5t11.5 99.5t13 88.5t14.5 70zM177 52q1 -22 3 -57l4.5 -77.5t6 -88.5t7.5 -89.5l7.5 -81t7.5 -62.5l-10 -2q-4 25 -7.5 62.5
l-7.5 81t-7.5 90t-6 89l-4.5 78t-3 57.5h10z" />
    <glyph glyph-name="bar" unicode="|" horiz-adv-x="302" 
d="M195 714q-2 -25 -5.5 -72.5l-8 -110t-9 -135t-8 -148.5t-6 -151t-2.5 -141q0 -60 2.5 -109.5t7.5 -84.5l-10 -2q-5 35 -7.5 85t-2.5 111q0 66 2.5 141t6 151t8 148.5t9 135l8 110t5.5 72.5h10z" />
    <glyph glyph-name="asciicircum" unicode="^" horiz-adv-x="529" 
d="M105 269l24 34.5l36 49l42 54.5l41 52.5l33.5 42t19.5 22.5l8 -8q-5 -5 -19.5 -22.5l-34 -42l-41 -52.5l-42 -54.5l-36.5 -48t-23 -33.5zM309 516q6 -19 19 -46.5t29.5 -55.5t34 -53.5t31.5 -40.5l-8 -6q-15 15 -32.5 41t-34 55t-30 56.5t-19.5 47.5z" />
    <glyph glyph-name="hyphen" unicode="-" horiz-adv-x="500" 
d="M134 290q19 2 43 3.5l50 3t53 2.5t52 1h21.5t21.5 -1v-10q-11 1 -21.5 1h-21.5q-25 0 -52 -1t-53 -2.5l-50 -3t-43 -3.5v10z" />
    <glyph glyph-name="slash" unicode="/" horiz-adv-x="463" 
d="M452 736q-8 -20 -27.5 -58.5l-46 -89l-58.5 -109.5l-65 -121l-75.5 -140.5l-67.5 -128t-50.5 -102t-25.5 -61.5l-10 2q4 17 25 60.5l51.5 102.5l68.5 129.5l76 141.5l61.5 114l57 107l46.5 91t30 66z" />
    <glyph glyph-name="tilde" unicode="&#x2dc;" horiz-adv-x="377" 
d="M69 272q10 17 31 33t40 16q14 0 23 -9t17 -20q8 -10 16 -18.5t20 -8.5q25 0 41.5 12t30.5 30l8 -6q-15 -20 -33.5 -33t-46.5 -13q-16 0 -25.5 10t-18.5 21q-7 10 -14.5 17.5t-17.5 7.5q-17 0 -36 -14t-27 -29z" />
    <glyph glyph-name="quotesinglbase" unicode="&#x201a;" horiz-adv-x="305" 
d="M122 79q10 -2 26.5 -4t31.5 -2l-2 -10q-5 -16 -12 -36.5t-16.5 -42t-20 -42.5t-22.5 -39l-8 6q11 16 21 36.5t19 41t16 40t12 35.5q-11 1 -26.5 3t-20.5 4z" />
    <glyph glyph-name="quotedblbase" unicode="&#x201e;" horiz-adv-x="329" 
d="M122 79q10 -2 26.5 -4t31.5 -2l-2 -10q-5 -16 -12 -36.5t-16.5 -42t-20 -42.5t-22.5 -39l-8 6q11 16 21 36.5t19 41t16 40t12 35.5q-11 1 -26.5 3t-20.5 4zM217 73h43l-1 -11q-9 -32 -25.5 -77t-40.5 -85l-8 6q23 42 38 83t24 73h-15.5t-16.5 1z" />
    <glyph glyph-name="quoteleft" unicode="&#x2018;" horiz-adv-x="305" 
d="M187 531q-10 2 -26.5 4t-31.5 2l2 10q4 16 11.5 36.5t17 42t20 42.5t22.5 39l8 -6q-11 -17 -21 -37t-19 -40.5t-16.5 -40t-11.5 -35.5q11 -1 26.5 -3t20.5 -4z" />
    <glyph glyph-name="quoteright" unicode="&#x2019;" horiz-adv-x="305" 
d="M152 707q10 -2 26.5 -4t31.5 -2l-2 -10q-5 -16 -12 -36.5t-16.5 -42t-20 -42.5t-22.5 -39l-8 6q11 16 21 36.5t19 41t16 40t12 35.5q-11 1 -26.5 3t-20.5 4z" />
    <glyph glyph-name="quotedblleft" unicode="&#x201c;" horiz-adv-x="329" 
d="M258 515q-10 2 -26.5 4t-31.5 2l2 10q4 16 11.5 36.5t17 42t20 42.5t22.5 39l8 -6q-11 -17 -21 -37t-19 -40.5t-16.5 -40t-11.5 -35.5q11 -1 26.5 -3t20.5 -4zM163 521h-43l1 11q9 32 25.5 77t40.5 85l8 -6q-23 -42 -38 -83t-24 -73h15.5t16.5 -1z" />
    <glyph glyph-name="quotedblright" unicode="&#x201d;" horiz-adv-x="329" 
d="M143 694q10 -2 26.5 -4t31.5 -2l-2 -10q-5 -16 -12 -36.5t-16.5 -42t-20 -42.5t-22.5 -39l-8 6q11 16 21 36.5t19 41t16 40t12 35.5q-11 1 -26.5 3t-20.5 4zM238 688h43l-1 -11q-9 -32 -25.5 -77t-40.5 -85l-8 6q23 42 38 83t24 73h-15.5t-16.5 1z" />
    <glyph glyph-name="parenleft" unicode="(" horiz-adv-x="298" 
d="M277 682q-31 -32 -66 -77.5t-64 -104.5t-48.5 -131.5t-19.5 -159.5q0 -69 15 -146.5t50 -166.5l-10 -4q-35 89 -50 167.5t-15 149.5q0 88 19.5 162t49.5 133.5t65 105.5t66 78z" />
    <glyph glyph-name="parenright" unicode=")" horiz-adv-x="381" 
d="M67 726q49 -53 89 -115.5t68 -130t43.5 -137t15.5 -135.5q0 -97 -36 -180.5t-113 -137.5l-6 8q76 53 110.5 134t34.5 176q0 66 -15.5 134.5t-43.5 135.5t-67.5 128.5t-87.5 113.5z" />
    <glyph glyph-name="backslash" unicode="\" horiz-adv-x="552" 
d="M8 700q16 -28 53.5 -84.5l86.5 -127.5l105 -149.5l109.5 -149.5t100.5 -127.5t78 -84.5l-6 -8q-24 21 -56.5 59l-71 86.5l-80 104l-82.5 113l-80 113.5l-71.5 104.5l-57 86t-36.5 58.5z" />
    <glyph glyph-name="plus" unicode="+" horiz-adv-x="500" 
d="M254 411l-2.5 -41t-3.5 -54q-2 -26 -3.5 -53.5l-3 -53.5t-3 -48l-2.5 -37h-10l2.5 37t3 48l3 53.5t3.5 53.5q2 28 3.5 54t2.5 41h10zM134 290q19 2 43 3.5l50 3t53 2.5t52 1h21.5t21.5 -1v-10q-11 1 -21.5 1h-21.5q-25 0 -52 -1t-53 -2.5l-50 -3t-43 -3.5v10z" />
    <glyph glyph-name="bracketleft" unicode="[" horiz-adv-x="298" 
d="M148 677l-40 -331q-8 -63 -15 -124.5t-12 -112t-8 -84t-2 -40.5h-10q-1 7 2 41t8 84.5t12 112t15 124.5l40 332zM253 665q-4 -1 -11.5 -1h-18.5q-22 0 -47 1t-33 2v10q8 -1 33 -2t47 -1h16.5t11.5 1zM60 -16q21 2 37.5 8t38.5 19l6 -8q-23 -14 -41 -20.5t-41 -8.5v10z
" />
    <glyph glyph-name="bracketright" unicode="]" horiz-adv-x="298" 
d="M64 642q13 3 30 6l62 12.5t68 20.5l4 -10q-33 -13 -67.5 -20l-64.5 -13q-17 -3 -30 -6zM229 671q-5 -81 -8.5 -167t-12.5 -173.5t-26.5 -175t-50.5 -171.5l-8 6q33 83 50 170t25.5 174.5t12 173t8.5 165.5zM50 6q17 -7 38.5 -9.5t42.5 -2.5v-10q-23 0 -45.5 2.5
t-39.5 9.5z" />
    <glyph glyph-name="periodcentered" unicode="&#xb7;" horiz-adv-x="314" 
d="M136 228q1 -7 7.5 -12.5t17.5 -5.5v-10q-14 0 -24 9t-11 19h10z" />
    <glyph glyph-name="exclamdown" unicode="&#xa1;" horiz-adv-x="326" 
d="M125 -296q-15 85 -15 180q0 87 9.5 166.5t20.5 139.5l10 -2q-11 -60 -20.5 -139.5t-9.5 -164.5q0 -91 15 -178zM185 313q-11 -9 -21 -10.5t-19 2.5l1 11q7 -2 15 -2.5t18 7.5z" />
    <glyph glyph-name="breve" unicode="&#x2d8;" horiz-adv-x="346" 
d="M126 408q-3 -10 -3 -23t4.5 -25.5t14 -23t24.5 -14.5t29.5 0t26.5 12.5t19.5 20.5t9.5 23l10 -2q-2 -12 -11 -25t-22.5 -23t-30 -15t-33.5 -1q-17 5 -28.5 17t-17 27t-6 30t3.5 26z" />
    <glyph glyph-name="dotaccent" unicode="&#x2d9;" horiz-adv-x="270" 
d="M182 403q0 -7 5.5 -14t19.5 -7v-10q-19 0 -27 10.5t-8 20.5h10z" />
    <glyph glyph-name="ring" unicode="&#x2da;" horiz-adv-x="308" 
d="M209 426q0 13 -8 23t-20 10q-17 0 -34.5 -12.5t-17.5 -39.5q0 -16 11.5 -21.5t21.5 -4.5q17 1 32 12t15 33zM219 426q0 -26 -18.5 -40t-38.5 -15q-13 -1 -28 6.5t-15 29.5q0 16 6 27.5t15 19t20 11.5t21 4q17 0 27.5 -13t10.5 -30z" />
    <glyph glyph-name="caron" unicode="&#x2c7;" horiz-adv-x="389" 
d="M97 378l18 -18t23.5 -21.5l24.5 -20t21 -13.5l-4 -8q-9 5 -22 14.5t-26 20.5t-24.5 22l-18.5 18zM308 407q-8 -9 -25 -24.5l-36.5 -32l-38 -31.5l-28.5 -23l-6 8l28.5 23l37.5 31l35.5 31t24.5 24z" />
    <glyph glyph-name="ellipsis" unicode="&#x2026;" horiz-adv-x="902" 
d="M148 53q-2 -10 3.5 -19t19.5 -11l-2 -10q-18 2 -25.5 15t-5.5 27zM394 53q-2 -10 3.5 -19t19.5 -11l-2 -10q-18 2 -25.5 15t-5.5 27zM640 53q-2 -10 3.5 -19t19.5 -11l-2 -10q-18 2 -25.5 15t-5.5 27z" />
    <glyph glyph-name="yen" unicode="&#xa5;" horiz-adv-x="630" 
d="M-77 718q-33 -62 -33 -142q0 -55 20.5 -109t59.5 -97.5t96.5 -70.5t132.5 -27q70 0 128 18.5t109 52.5t98 82.5t95 109.5l8 -7q-59 -72 -111.5 -122.5t-104 -82.5t-106 -46.5t-116.5 -14.5q-77 0 -136.5 28t-100 73t-61.5 101t-21 112q0 39 8.5 76.5t26.5 69.5zM637 527
q-15 -53 -37 -116.5t-47 -128.5t-51.5 -126.5t-50.5 -109.5l-8 4q23 46 48.5 107l50.5 125.5t47 128.5t38 118zM367 234q100 1 187.5 9t153.5 16l2 -10l-76.5 -8.5t-86 -8t-90.5 -6t-90 -2.5v10zM371 164q78 0 162 9t163 20l2 -10q-79 -11 -160 -20t-169 -9z" />
    <glyph glyph-name="questiondown" unicode="&#xbf;" horiz-adv-x="372" 
d="M305 11q9 -26 9 -55q0 -37 -13.5 -75t-35 -68.5t-50 -50t-58.5 -19.5q-22 0 -35 6.5t-20.5 16.5t-10 22.5t-2.5 24.5q0 31 19.5 72t47.5 83t59 81l54 67q11 12 18 22t11 15l8 -6q-4 -5 -11 -14.5t-18 -22.5l-52.5 -65t-58.5 -79t-47.5 -81.5t-19.5 -71.5q0 -11 2 -21.5
t8 -19t17.5 -14t30.5 -5.5q28 0 54.5 18.5t47 47.5t33 65t12.5 72q0 27 -9 51zM298 143q-6 0 -21 -0.5t-35 -1.5t-43 -2.5t-47 -4.5l-2 10q24 3 47.5 4.5t43.5 2.5t35.5 1.5t21.5 0.5v-10zM255 360q2 10 -3.5 19t-19.5 11l2 10q18 -2 25.5 -15t5.5 -27z" />
    <glyph glyph-name="ae" unicode="&#xe6;" horiz-adv-x="616" 
d="M290 160q-21 21 -36 30.5t-29 14t-28 4.5q-25 0 -53.5 -11.5t-53 -29.5t-40.5 -39.5t-16 -41.5q0 -12 26 -12q35 0 73 15t67 45l8 -4q-2 -12 0.5 -28t7.5 -29l-10 -4q-3 8 -5.5 22.5t-3.5 24.5q-29 -27 -68.5 -39.5t-68.5 -12.5q-17 0 -26.5 5t-9.5 17q0 21 17 44.5
t43 43t56 32t57 12.5q15 0 32 -5.5t33.5 -17.5t33.5 -31zM293 168q3 -3 13 -7t32 -4q15 0 26 10t11 19q0 10 -8 14t-21 4q-5 0 -17 -5t-24 -17t-21 -32.5t-8 -42.5q-1 -70 91 -75q141 1 322 136l6 -8q-181 -138 -328 -138q-102 2 -102 85q0 25 10.5 47.5t24 35.5t27 18.5
t19.5 5.5q17 0 28 -6t11 -22q0 -12 -13.5 -25.5t-33.5 -13.5q-23 -1 -36 5t-15 14z" />
    <glyph glyph-name="ydieresis" unicode="&#xff;" horiz-adv-x="552" 
d="M84 168q-11 -27 -16.5 -45t-8 -35t0.5 -29q3 -15 23 -8q17 7 36.5 22.5l41.5 34.5q32 28 64.5 52t65.5 24q31 0 52 -20t33 -48t17 -58.5t5 -51.5q0 -14 -2.5 -38.5t-11 -52.5t-24 -57.5t-41 -53t-63 -38.5t-88.5 -15t-73.5 27t-22.5 69q0 46 43 96.5t118.5 96.5t178 82.5
t222.5 47.5l2 -10q-118 -11 -219.5 -46.5t-175.5 -80t-116.5 -93.5t-42.5 -93q0 -35 20.5 -60.5t65.5 -25.5q49 0 85 14.5t60 37t39 50.5t23 55.5t10.5 50.5t2.5 37q0 20 -4.5 48.5t-15.5 55t-30 45.5t-47 19q-30 0 -62 -23.5t-62 -50.5q-22 -20 -42.5 -36.5t-40.5 -23.5
q-11 -4 -21 -1t-13 17q-3 13 -1 29t7 33.5t18 51.5zM150 337q2 -9 12.5 -15t18.5 -6v-10q-11 0 -24.5 8.5t-16.5 20.5zM234 354q23 0 40 -20l-8 -6q-13 16 -32 16v10z" />
    <glyph glyph-name="yacute" unicode="&#xfd;" horiz-adv-x="552" 
d="M84 168q-11 -27 -16.5 -45t-8 -35t0.5 -29q3 -15 23 -8q17 7 36.5 22.5l41.5 34.5q32 28 64.5 52t65.5 24q31 0 52 -20t33 -48t17 -58.5t5 -51.5q0 -14 -2.5 -38.5t-11 -52.5t-24 -57.5t-41 -53t-63 -38.5t-88.5 -15t-73.5 27t-22.5 69q0 46 43 96.5t118.5 96.5t178 82.5
t222.5 47.5l2 -10q-118 -11 -219.5 -46.5t-175.5 -80t-116.5 -93.5t-42.5 -93q0 -35 20.5 -60.5t65.5 -25.5q49 0 85 14.5t60 37t39 50.5t23 55.5t10.5 50.5t2.5 37q0 20 -4.5 48.5t-15.5 55t-30 45.5t-47 19q-30 0 -62 -23.5t-62 -50.5q-22 -20 -42.5 -36.5t-40.5 -23.5
q-11 -4 -21 -1t-13 17q-3 13 -1 29t7 33.5t18 51.5zM188 311q16 9 37 22.5l43.5 29l45.5 31.5l44 31l6 -8l-86 -60t-86 -54z" />
    <glyph glyph-name="udieresis" unicode="&#xfc;" horiz-adv-x="398" 
d="M84 168q-7 -16 -12.5 -35t-5.5 -39q0 -29 16.5 -43t45.5 -14q21 0 48 13.5t55 34t55 45t48 47.5l8 -6q-22 -24 -49.5 -49.5t-56.5 -46.5t-57 -34.5t-51 -13.5q-33 0 -52.5 16.5t-19.5 50.5q0 21 6.5 41.5t12.5 34.5zM342 171q-6 -15 -8 -30.5t-0.5 -43t11.5 -59.5l-10 -3
q-11 36 -12 62t1 43t10 37zM154 357q2 -9 12.5 -15t18.5 -6v-10q-11 0 -24.5 8.5t-16.5 20.5zM238 374q23 0 40 -20l-8 -6q-13 16 -32 16v10z" />
    <glyph glyph-name="ucircumflex" unicode="&#xfb;" horiz-adv-x="398" 
d="M84 168q-7 -16 -12.5 -35t-5.5 -39q0 -29 16.5 -43t45.5 -14q21 0 48 13.5t55 34t55 45t48 47.5l8 -6q-22 -24 -49.5 -49.5t-56.5 -46.5t-57 -34.5t-51 -13.5q-33 0 -52.5 16.5t-19.5 50.5q0 21 6.5 41.5t12.5 34.5zM342 171q-6 -15 -8 -30.5t-0.5 -43t11.5 -59.5l-10 -3
q-11 36 -12 62t1 43t10 37zM123 302q20 6 48 18.5t53 22.5q9 -11 22.5 -26t27.5 -26l-6 -8q-14 10 -26.5 22.5t-21.5 23.5q-22 -10 -48 -20.5t-45 -16.5z" />
    <glyph glyph-name="uacute" unicode="&#xfa;" horiz-adv-x="398" 
d="M84 168q-7 -16 -12.5 -35t-5.5 -39q0 -29 16.5 -43t45.5 -14q21 0 48 13.5t55 34t55 45t48 47.5l8 -6q-22 -24 -49.5 -49.5t-56.5 -46.5t-57 -34.5t-51 -13.5q-33 0 -52.5 16.5t-19.5 50.5q0 21 6.5 41.5t12.5 34.5zM342 171q-6 -15 -8 -30.5t-0.5 -43t11.5 -59.5l-10 -3
q-11 36 -12 62t1 43t10 37zM172 303q16 9 37 22.5l43.5 29l45.5 31.5l44 31l6 -8l-86 -60t-86 -54z" />
    <glyph glyph-name="ugrave" unicode="&#xf9;" horiz-adv-x="398" 
d="M84 168q-7 -16 -12.5 -35t-5.5 -39q0 -29 16.5 -43t45.5 -14q21 0 48 13.5t55 34t55 45t48 47.5l8 -6q-22 -24 -49.5 -49.5t-56.5 -46.5t-57 -34.5t-51 -13.5q-33 0 -52.5 16.5t-19.5 50.5q0 21 6.5 41.5t12.5 34.5zM342 171q-6 -15 -8 -30.5t-0.5 -43t11.5 -59.5l-10 -3
q-11 36 -12 62t1 43t10 37zM114 401l83.5 -45.5t89.5 -42.5l-4 -10q-44 19 -85.5 41t-87.5 49z" />
    <glyph glyph-name="oslash" unicode="&#xf8;" 
d="M191 331l-12 -49l-17.5 -74.5l-19.5 -87.5l-19 -88t-15.5 -76t-8.5 -51l-10 2q2 17 8.5 51t15.5 76l19 88l19.5 87.5l17.5 74.5l12 49zM84 167q-6 -25 0 -62q8 -34 33 -53.5t54 -19.5q16 0 9 20q-3 11 -12 25.5t-20.5 28t-23 24.5t-20.5 16l4 8q10 -5 23.5 -17.5
t26.5 -28.5t22.5 -32.5t11.5 -29.5q2 -11 -2.5 -17.5t-18.5 -6.5q-32 0 -60 21.5t-37 59.5q-6 38 0 67zM439 162q-43 -14 -97 -21t-109 -7q-32 0 -66.5 3t-62.5 9l4 8q28 -6 61 -8t64 -2q54 0 106.5 7t95.5 21z" />
    <glyph glyph-name="divide" unicode="&#xf7;" horiz-adv-x="346" 
d="M163 329q2 -8 12.5 -9t18.5 5l6 -8q-11 -10 -27 -7t-20 17zM148 53q-2 -10 3.5 -19t19.5 -11l-2 -10q-18 2 -25.5 15t-5.5 27zM74 188q19 2 43 3.5l50 3t53 2.5t52 1h21.5t21.5 -1v-10q-11 1 -21.5 1h-21.5q-25 0 -52 -1t-53 -2.5l-50 -3t-43 -3.5v10z" />
    <glyph glyph-name="odieresis" unicode="&#xf6;" 
d="M84 167q-6 -25 0 -62q8 -34 33 -53.5t54 -19.5q16 0 9 20q-3 11 -12 25.5t-20.5 28t-23 24.5t-20.5 16l4 8q10 -5 23.5 -17.5t26.5 -28.5t22.5 -32.5t11.5 -29.5q2 -11 -2.5 -17.5t-18.5 -6.5q-32 0 -60 21.5t-37 59.5q-6 38 0 67zM439 162q-43 -14 -97 -21t-109 -7
q-32 0 -66.5 3t-62.5 9l4 8q28 -6 61 -8t64 -2q54 0 106.5 7t95.5 21zM121 371q2 -9 12.5 -15t18.5 -6v-10q-11 0 -24.5 8.5t-16.5 20.5zM205 388q23 0 40 -20l-8 -6q-13 16 -32 16v10z" />
    <glyph glyph-name="otilde" unicode="&#xf5;" 
d="M84 167q-6 -25 0 -62q8 -34 33 -53.5t54 -19.5q16 0 9 20q-3 11 -12 25.5t-20.5 28t-23 24.5t-20.5 16l4 8q10 -5 23.5 -17.5t26.5 -28.5t22.5 -32.5t11.5 -29.5q2 -11 -2.5 -17.5t-18.5 -6.5q-32 0 -60 21.5t-37 59.5q-6 38 0 67zM439 162q-43 -14 -97 -21t-109 -7
q-32 0 -66.5 3t-62.5 9l4 8q28 -6 61 -8t64 -2q54 0 106.5 7t95.5 21zM36 336q10 17 31 33t40 16q14 0 23 -9t17 -20q8 -10 16 -18.5t20 -8.5q25 0 41.5 12t30.5 30l8 -6q-15 -20 -33.5 -33t-46.5 -13q-16 0 -25.5 10t-18.5 21q-7 10 -14.5 17.5t-17.5 7.5q-17 0 -36 -14
t-27 -29z" />
    <glyph glyph-name="ocircumflex" unicode="&#xf4;" 
d="M84 167q-6 -25 0 -62q8 -34 33 -53.5t54 -19.5q16 0 9 20q-3 11 -12 25.5t-20.5 28t-23 24.5t-20.5 16l4 8q10 -5 23.5 -17.5t26.5 -28.5t22.5 -32.5t11.5 -29.5q2 -11 -2.5 -17.5t-18.5 -6.5q-32 0 -60 21.5t-37 59.5q-6 38 0 67zM439 162q-43 -14 -97 -21t-109 -7
q-32 0 -66.5 3t-62.5 9l4 8q28 -6 61 -8t64 -2q54 0 106.5 7t95.5 21zM104 302q20 6 48 18.5t53 22.5q9 -11 22.5 -26t27.5 -26l-6 -8q-14 10 -26.5 22.5t-21.5 23.5q-22 -10 -48 -20.5t-45 -16.5z" />
    <glyph glyph-name="oacute" unicode="&#xf3;" 
d="M84 167q-6 -25 0 -62q8 -34 33 -53.5t54 -19.5q16 0 9 20q-3 11 -12 25.5t-20.5 28t-23 24.5t-20.5 16l4 8q10 -5 23.5 -17.5t26.5 -28.5t22.5 -32.5t11.5 -29.5q2 -11 -2.5 -17.5t-18.5 -6.5q-32 0 -60 21.5t-37 59.5q-6 38 0 67zM439 162q-43 -14 -97 -21t-109 -7
q-32 0 -66.5 3t-62.5 9l4 8q28 -6 61 -8t64 -2q54 0 106.5 7t95.5 21zM91 311q16 9 37 22.5l43.5 29l45.5 31.5l44 31l6 -8l-86 -60t-86 -54z" />
    <glyph glyph-name="ograve" unicode="&#xf2;" 
d="M84 167q-6 -25 0 -62q8 -34 33 -53.5t54 -19.5q16 0 9 20q-3 11 -12 25.5t-20.5 28t-23 24.5t-20.5 16l4 8q10 -5 23.5 -17.5t26.5 -28.5t22.5 -32.5t11.5 -29.5q2 -11 -2.5 -17.5t-18.5 -6.5q-32 0 -60 21.5t-37 59.5q-6 38 0 67zM439 162q-43 -14 -97 -21t-109 -7
q-32 0 -66.5 3t-62.5 9l4 8q28 -6 61 -8t64 -2q54 0 106.5 7t95.5 21zM93 401l83.5 -45.5t89.5 -42.5l-4 -10q-44 19 -85.5 41t-87.5 49z" />
    <glyph glyph-name="ntilde" unicode="&#xf1;" horiz-adv-x="370" 
d="M324 68q-9 5 -14.5 18t-9 30t-6 35.5t-5 34.5t-7 27t-11.5 13q-10 2 -24.5 -5.5t-31 -21.5t-34 -32l-34.5 -37q-40 -45 -84 -104l-10 2l20 142l10 -2l-17 -121l24.5 32t34.5 42l40 44.5t41 39t37.5 26t29.5 5.5q16 -4 22 -25.5t9.5 -48t8 -51.5t17.5 -35zM91 380
q10 17 31 33t40 16q14 0 23 -9t17 -20q8 -10 16 -18.5t20 -8.5q25 0 41.5 12t30.5 30l8 -6q-15 -20 -33.5 -33t-46.5 -13q-16 0 -25.5 10t-18.5 21q-7 10 -14.5 17.5t-17.5 7.5q-17 0 -36 -14t-27 -29z" />
    <glyph glyph-name="idieresis" unicode="&#xef;" horiz-adv-x="287" 
d="M80 170q25 -93 106 -93q85 -1 176 92l7 -5q-94 -99 -183 -97q-89 -1 -115 99zM86 371q2 -9 12.5 -15t18.5 -6v-10q-11 0 -24.5 8.5t-16.5 20.5zM170 388q23 0 40 -20l-8 -6q-13 16 -32 16v10z" />
    <glyph glyph-name="icircumflex" unicode="&#xee;" horiz-adv-x="287" 
d="M80 170q25 -93 106 -93q85 -1 176 92l7 -5q-94 -99 -183 -97q-89 -1 -115 99zM68 302q20 6 48 18.5t53 22.5q9 -11 22.5 -26t27.5 -26l-6 -8q-14 10 -26.5 22.5t-21.5 23.5q-22 -10 -48 -20.5t-45 -16.5z" />
    <glyph glyph-name="iacute" unicode="&#xed;" horiz-adv-x="287" 
d="M80 170q25 -93 106 -93q85 -1 176 92l7 -5q-94 -99 -183 -97q-89 -1 -115 99zM56 311q16 9 37 22.5l43.5 29l45.5 31.5l44 31l6 -8l-86 -60t-86 -54z" />
    <glyph glyph-name="igrave" unicode="&#xec;" horiz-adv-x="287" 
d="M80 170q25 -93 106 -93q85 -1 176 92l7 -5q-94 -99 -183 -97q-89 -1 -115 99zM59 401l83.5 -45.5t89.5 -42.5l-4 -10q-44 19 -85.5 41t-87.5 49z" />
    <glyph glyph-name="edieresis" unicode="&#xeb;" horiz-adv-x="402" 
d="M83 169q3 -3 9 -6q5 -2 13.5 -3.5t22.5 -1.5q15 0 26 10t11 19q0 10 -8 14t-21 4q-5 0 -17 -5t-24 -17t-21 -32.5t-8 -42.5q-1 -70 91 -75q141 1 322 136l6 -8q-181 -138 -328 -138q-102 2 -102 85q0 25 10.5 47.5t24 35.5t27 18.5t19.5 5.5q17 0 28 -6t11 -22
q0 -12 -13.5 -25.5t-33.5 -13.5q-16 0 -26 2t-16 5q-7 4 -11 8zM144 371q2 -9 12.5 -15t18.5 -6v-10q-11 0 -24.5 8.5t-16.5 20.5zM228 388q23 0 40 -20l-8 -6q-13 16 -32 16v10z" />
    <glyph glyph-name="ecircumflex" unicode="&#xea;" horiz-adv-x="402" 
d="M83 169q3 -3 9 -6q5 -2 13.5 -3.5t22.5 -1.5q15 0 26 10t11 19q0 10 -8 14t-21 4q-5 0 -17 -5t-24 -17t-21 -32.5t-8 -42.5q-1 -70 91 -75q141 1 322 136l6 -8q-181 -138 -328 -138q-102 2 -102 85q0 25 10.5 47.5t24 35.5t27 18.5t19.5 5.5q17 0 28 -6t11 -22
q0 -12 -13.5 -25.5t-33.5 -13.5q-16 0 -26 2t-16 5q-7 4 -11 8zM125 302q20 6 48 18.5t53 22.5q9 -11 22.5 -26t27.5 -26l-6 -8q-14 10 -26.5 22.5t-21.5 23.5q-22 -10 -48 -20.5t-45 -16.5z" />
    <glyph glyph-name="eacute" unicode="&#xe9;" horiz-adv-x="402" 
d="M83 169q3 -3 9 -6q5 -2 13.5 -3.5t22.5 -1.5q15 0 26 10t11 19q0 10 -8 14t-21 4q-5 0 -17 -5t-24 -17t-21 -32.5t-8 -42.5q-1 -70 91 -75q141 1 322 136l6 -8q-181 -138 -328 -138q-102 2 -102 85q0 25 10.5 47.5t24 35.5t27 18.5t19.5 5.5q17 0 28 -6t11 -22
q0 -12 -13.5 -25.5t-33.5 -13.5q-16 0 -26 2t-16 5q-7 4 -11 8zM114 311q16 9 37 22.5l43.5 29l45.5 31.5l44 31l6 -8l-86 -60t-86 -54z" />
    <glyph glyph-name="egrave" unicode="&#xe8;" horiz-adv-x="402" 
d="M83 169q3 -3 9 -6q5 -2 13.5 -3.5t22.5 -1.5q15 0 26 10t11 19q0 10 -8 14t-21 4q-5 0 -17 -5t-24 -17t-21 -32.5t-8 -42.5q-1 -70 91 -75q141 1 322 136l6 -8q-181 -138 -328 -138q-102 2 -102 85q0 25 10.5 47.5t24 35.5t27 18.5t19.5 5.5q17 0 28 -6t11 -22
q0 -12 -13.5 -25.5t-33.5 -13.5q-16 0 -26 2t-16 5q-7 4 -11 8zM116 401l83.5 -45.5t89.5 -42.5l-4 -10q-44 19 -85.5 41t-87.5 49z" />
    <glyph glyph-name="ccedilla" unicode="&#xe7;" horiz-adv-x="332" 
d="M410 162q-19 11 -46 20q-23 8 -57 14.5t-79 6.5q-41 0 -77 -11t-63 -28.5t-42.5 -40.5t-15.5 -47q0 -22 28 -33.5t69 -11.5q35 0 74 9t73 28l4 -8q-35 -20 -75.5 -29.5t-75.5 -9.5q-45 0 -76 14.5t-31 40.5t16 51t44.5 44t66 30.5t81.5 11.5q45 0 80 -7t59 -15
q28 -10 49 -21zM115 -27l9.5 14l11.5 16t11 15.5t8 12.5l8 -6q-5 -8 -15.5 -23l-18.5 -27q9 2 21 2.5t24 0.5q17 0 30.5 -3t16.5 -10t-6.5 -16t-26.5 -18t-39 -16t-44 -10l-2 10q22 3 42 9.5t34.5 13.5t23 13.5t8.5 9.5q0 4 -11.5 5.5t-25.5 1.5q-16 0 -32.5 -2t-24.5 -4z
" />
    <glyph glyph-name="aring" unicode="&#xe5;" horiz-adv-x="265" 
d="M256 179q-7 8 -16 15q-8 5 -18.5 10t-24.5 5q-25 0 -53.5 -11.5t-53 -29.5t-40.5 -39.5t-16 -41.5q0 -12 26 -12q35 0 73 15t67 45l8 -4q-2 -12 0.5 -28t7.5 -29l-10 -4q-3 8 -5.5 22.5t-3.5 24.5q-29 -27 -68.5 -39.5t-68.5 -12.5q-17 0 -26.5 5t-9.5 17q0 21 17 44.5
t43 43t56 32t57 12.5q15 0 27 -5.5t21 -11.5q11 -8 19 -17zM238 362q0 13 -8 23t-20 10q-17 0 -34.5 -12.5t-17.5 -39.5q0 -16 11.5 -21.5t21.5 -4.5q17 1 32 12t15 33zM248 362q0 -26 -18.5 -40t-38.5 -15q-13 -1 -28 6.5t-15 29.5q0 16 6 27.5t15 19t20 11.5t21 4
q17 0 27.5 -13t10.5 -30z" />
    <glyph glyph-name="adieresis" unicode="&#xe4;" horiz-adv-x="265" 
d="M256 179q-7 8 -16 15q-8 5 -18.5 10t-24.5 5q-25 0 -53.5 -11.5t-53 -29.5t-40.5 -39.5t-16 -41.5q0 -12 26 -12q35 0 73 15t67 45l8 -4q-2 -12 0.5 -28t7.5 -29l-10 -4q-3 8 -5.5 22.5t-3.5 24.5q-29 -27 -68.5 -39.5t-68.5 -12.5q-17 0 -26.5 5t-9.5 17q0 21 17 44.5
t43 43t56 32t57 12.5q15 0 27 -5.5t21 -11.5q11 -8 19 -17zM77 371q2 -9 12.5 -15t18.5 -6v-10q-11 0 -24.5 8.5t-16.5 20.5zM161 388q23 0 40 -20l-8 -6q-13 16 -32 16v10z" />
    <glyph glyph-name="atilde" unicode="&#xe3;" horiz-adv-x="265" 
d="M256 179q-7 8 -16 15q-8 5 -18.5 10t-24.5 5q-25 0 -53.5 -11.5t-53 -29.5t-40.5 -39.5t-16 -41.5q0 -12 26 -12q35 0 73 15t67 45l8 -4q-2 -12 0.5 -28t7.5 -29l-10 -4q-3 8 -5.5 22.5t-3.5 24.5q-29 -27 -68.5 -39.5t-68.5 -12.5q-17 0 -26.5 5t-9.5 17q0 21 17 44.5
t43 43t56 32t57 12.5q15 0 27 -5.5t21 -11.5q11 -8 19 -17zM77 319q10 17 31 33t40 16q14 0 23 -9t17 -20q8 -10 16 -18.5t20 -8.5q25 0 41.5 12t30.5 30l8 -6q-15 -20 -33.5 -33t-46.5 -13q-16 0 -25.5 10t-18.5 21q-7 10 -14.5 17.5t-17.5 7.5q-17 0 -36 -14t-27 -29z" />
    <glyph glyph-name="acircumflex" unicode="&#xe2;" horiz-adv-x="265" 
d="M256 179q-7 8 -16 15q-8 5 -18.5 10t-24.5 5q-25 0 -53.5 -11.5t-53 -29.5t-40.5 -39.5t-16 -41.5q0 -12 26 -12q35 0 73 15t67 45l8 -4q-2 -12 0.5 -28t7.5 -29l-10 -4q-3 8 -5.5 22.5t-3.5 24.5q-29 -27 -68.5 -39.5t-68.5 -12.5q-17 0 -26.5 5t-9.5 17q0 21 17 44.5
t43 43t56 32t57 12.5q15 0 27 -5.5t21 -11.5q11 -8 19 -17zM95 315q20 6 48 18.5t53 22.5q9 -11 22.5 -26t27.5 -26l-6 -8q-14 10 -26.5 22.5t-21.5 23.5q-22 -10 -48 -20.5t-45 -16.5z" />
    <glyph glyph-name="aacute" unicode="&#xe1;" horiz-adv-x="265" 
d="M256 179q-7 8 -16 15q-8 5 -18.5 10t-24.5 5q-25 0 -53.5 -11.5t-53 -29.5t-40.5 -39.5t-16 -41.5q0 -12 26 -12q35 0 73 15t67 45l8 -4q-2 -12 0.5 -28t7.5 -29l-10 -4q-3 8 -5.5 22.5t-3.5 24.5q-29 -27 -68.5 -39.5t-68.5 -12.5q-17 0 -26.5 5t-9.5 17q0 21 17 44.5
t43 43t56 32t57 12.5q15 0 27 -5.5t21 -11.5q11 -8 19 -17zM140 312q16 9 37 22.5l43.5 29l45.5 31.5l44 31l6 -8l-86 -60t-86 -54z" />
    <glyph glyph-name="agrave" unicode="&#xe0;" horiz-adv-x="265" 
d="M256 179q-7 8 -16 15q-8 5 -18.5 10t-24.5 5q-25 0 -53.5 -11.5t-53 -29.5t-40.5 -39.5t-16 -41.5q0 -12 26 -12q35 0 73 15t67 45l8 -4q-2 -12 0.5 -28t7.5 -29l-10 -4q-3 8 -5.5 22.5t-3.5 24.5q-29 -27 -68.5 -39.5t-68.5 -12.5q-17 0 -26.5 5t-9.5 17q0 21 17 44.5
t43 43t56 32t57 12.5q15 0 27 -5.5t21 -11.5q11 -8 19 -17zM71 399l83.5 -45.5t89.5 -42.5l-4 -10q-44 19 -85.5 41t-87.5 49z" />
    <glyph glyph-name="Yacute" unicode="&#xdd;" horiz-adv-x="630" 
d="M-77 718q-33 -62 -33 -142q0 -55 20.5 -109t59.5 -97.5t96.5 -70.5t132.5 -27q70 0 128 18.5t109 52.5t98 82.5t95 109.5l8 -7q-59 -72 -111.5 -122.5t-104 -82.5t-106 -46.5t-116.5 -14.5q-77 0 -136.5 28t-100 73t-61.5 101t-21 112q0 39 8.5 76.5t26.5 69.5zM637 527
q-15 -53 -37 -116.5t-47 -128.5t-51.5 -126.5t-50.5 -109.5l-8 4q23 46 48.5 107l50.5 125.5t47 128.5t38 118zM227 764q16 9 37 22.5l43.5 29l45.5 31.5l44 31l6 -8l-86 -60t-86 -54z" />
    <glyph glyph-name="Udieresis" unicode="&#xdc;" horiz-adv-x="817" 
d="M308 588q-37 -40 -76.5 -97.5t-72 -121t-53.5 -127.5t-21 -118q0 -35 10 -56.5t24 -33t29 -15.5t25 -4q56 0 115 27.5t117.5 73t114 105.5t104.5 125t90 130.5t69 123.5l8 -4q-28 -58 -69.5 -124.5t-91.5 -132t-106.5 -126t-115.5 -107t-119 -74t-116 -27.5
q-12 0 -28.5 4.5t-32 17t-26.5 36t-11 61.5q0 55 21 120t54 129.5t72.5 122t77.5 98.5zM785 584q-75 -139 -116 -247t-41 -166q0 -31 21 -54.5t56 -23.5q22 0 47 7t50 17.5t48.5 24t42.5 27.5l6 -8q-20 -14 -44 -28t-50 -25t-52 -18t-48 -7q-40 0 -63.5 26.5t-23.5 61.5
q0 58 41 167t118 250zM500 812q2 -9 12.5 -15t18.5 -6v-10q-11 0 -24.5 8.5t-16.5 20.5zM584 829q23 0 40 -20l-8 -6q-13 16 -32 16v10z" />
    <glyph glyph-name="Ucircumflex" unicode="&#xdb;" horiz-adv-x="817" 
d="M308 588q-37 -40 -76.5 -97.5t-72 -121t-53.5 -127.5t-21 -118q0 -35 10 -56.5t24 -33t29 -15.5t25 -4q56 0 115 27.5t117.5 73t114 105.5t104.5 125t90 130.5t69 123.5l8 -4q-28 -58 -69.5 -124.5t-91.5 -132t-106.5 -126t-115.5 -107t-119 -74t-116 -27.5
q-12 0 -28.5 4.5t-32 17t-26.5 36t-11 61.5q0 55 21 120t54 129.5t72.5 122t77.5 98.5zM785 584q-75 -139 -116 -247t-41 -166q0 -31 21 -54.5t56 -23.5q22 0 47 7t50 17.5t48.5 24t42.5 27.5l6 -8q-20 -14 -44 -28t-50 -25t-52 -18t-48 -7q-40 0 -63.5 26.5t-23.5 61.5
q0 58 41 167t118 250zM447 761q20 6 48 18.5t53 22.5q9 -11 22.5 -26t27.5 -26l-6 -8q-14 10 -26.5 22.5t-21.5 23.5q-22 -10 -48 -20.5t-45 -16.5z" />
    <glyph glyph-name="Uacute" unicode="&#xda;" horiz-adv-x="817" 
d="M308 588q-37 -40 -76.5 -97.5t-72 -121t-53.5 -127.5t-21 -118q0 -35 10 -56.5t24 -33t29 -15.5t25 -4q56 0 115 27.5t117.5 73t114 105.5t104.5 125t90 130.5t69 123.5l8 -4q-28 -58 -69.5 -124.5t-91.5 -132t-106.5 -126t-115.5 -107t-119 -74t-116 -27.5
q-12 0 -28.5 4.5t-32 17t-26.5 36t-11 61.5q0 55 21 120t54 129.5t72.5 122t77.5 98.5zM785 584q-75 -139 -116 -247t-41 -166q0 -31 21 -54.5t56 -23.5q22 0 47 7t50 17.5t48.5 24t42.5 27.5l6 -8q-20 -14 -44 -28t-50 -25t-52 -18t-48 -7q-40 0 -63.5 26.5t-23.5 61.5
q0 58 41 167t118 250zM455 761q16 9 37 22.5l43.5 29l45.5 31.5l44 31l6 -8l-86 -60t-86 -54z" />
    <glyph glyph-name="Ugrave" unicode="&#xd9;" horiz-adv-x="817" 
d="M308 588q-37 -40 -76.5 -97.5t-72 -121t-53.5 -127.5t-21 -118q0 -35 10 -56.5t24 -33t29 -15.5t25 -4q56 0 115 27.5t117.5 73t114 105.5t104.5 125t90 130.5t69 123.5l8 -4q-28 -58 -69.5 -124.5t-91.5 -132t-106.5 -126t-115.5 -107t-119 -74t-116 -27.5
q-12 0 -28.5 4.5t-32 17t-26.5 36t-11 61.5q0 55 21 120t54 129.5t72.5 122t77.5 98.5zM785 584q-75 -139 -116 -247t-41 -166q0 -31 21 -54.5t56 -23.5q22 0 47 7t50 17.5t48.5 24t42.5 27.5l6 -8q-20 -14 -44 -28t-50 -25t-52 -18t-48 -7q-40 0 -63.5 26.5t-23.5 61.5
q0 58 41 167t118 250zM364 848l83.5 -45.5t89.5 -42.5l-4 -10q-44 19 -85.5 41t-87.5 49z" />
    <glyph glyph-name="Oslash" unicode="&#xd8;" horiz-adv-x="858" 
d="M741 479q-31 17 -69.5 26.5t-92.5 9.5q-51 0 -107.5 -14.5t-111 -40t-104 -60t-87.5 -73.5t-60 -80.5t-22 -82.5q0 -42 21.5 -69t57 -43t81 -22t92.5 -6q55 0 113.5 8t113.5 23.5t103.5 38.5t85 53.5t58 68.5t21.5 84q0 52 -25.5 85t-62.5 52t-78.5 26t-73.5 7v10
q34 0 77 -7.5t81.5 -27.5t65 -55t26.5 -90q0 -47 -22 -86.5t-59 -71t-87 -56t-106 -40.5t-115.5 -24t-115.5 -8q-49 0 -96 6.5t-84 23.5t-59.5 46t-22.5 74q0 42 22.5 85t61 83t89 75t106.5 61.5t113.5 41.5t109.5 15q55 0 94.5 -10t71.5 -28zM639 684q-8 -20 -27.5 -58.5
l-46 -89l-58.5 -109.5l-65 -121l-75.5 -140.5l-67.5 -128t-50.5 -102t-25.5 -61.5l-10 2q4 17 25 60.5l51.5 102.5l68.5 129.5l76 141.5l61.5 114l57 107l46.5 91t30 66z" />
    <glyph glyph-name="Odieresis" unicode="&#xd6;" horiz-adv-x="858" 
d="M741 479q-31 17 -69.5 26.5t-92.5 9.5q-51 0 -107.5 -14.5t-111 -40t-104 -60t-87.5 -73.5t-60 -80.5t-22 -82.5q0 -42 21.5 -69t57 -43t81 -22t92.5 -6q55 0 113.5 8t113.5 23.5t103.5 38.5t85 53.5t58 68.5t21.5 84q0 52 -25.5 85t-62.5 52t-78.5 26t-73.5 7v10
q34 0 77 -7.5t81.5 -27.5t65 -55t26.5 -90q0 -47 -22 -86.5t-59 -71t-87 -56t-106 -40.5t-115.5 -24t-115.5 -8q-49 0 -96 6.5t-84 23.5t-59.5 46t-22.5 74q0 42 22.5 85t61 83t89 75t106.5 61.5t113.5 41.5t109.5 15q55 0 94.5 -10t71.5 -28zM435 724q2 -9 12.5 -15
t18.5 -6v-10q-11 0 -24.5 8.5t-16.5 20.5zM519 741q23 0 40 -20l-8 -6q-13 16 -32 16v10z" />
    <glyph glyph-name="Otilde" unicode="&#xd5;" horiz-adv-x="858" 
d="M741 479q-31 17 -69.5 26.5t-92.5 9.5q-51 0 -107.5 -14.5t-111 -40t-104 -60t-87.5 -73.5t-60 -80.5t-22 -82.5q0 -42 21.5 -69t57 -43t81 -22t92.5 -6q55 0 113.5 8t113.5 23.5t103.5 38.5t85 53.5t58 68.5t21.5 84q0 52 -25.5 85t-62.5 52t-78.5 26t-73.5 7v10
q34 0 77 -7.5t81.5 -27.5t65 -55t26.5 -90q0 -47 -22 -86.5t-59 -71t-87 -56t-106 -40.5t-115.5 -24t-115.5 -8q-49 0 -96 6.5t-84 23.5t-59.5 46t-22.5 74q0 42 22.5 85t61 83t89 75t106.5 61.5t113.5 41.5t109.5 15q55 0 94.5 -10t71.5 -28zM395 693q10 17 31 33t40 16
q14 0 23 -9t17 -20q8 -10 16 -18.5t20 -8.5q25 0 41.5 12t30.5 30l8 -6q-15 -20 -33.5 -33t-46.5 -13q-16 0 -25.5 10t-18.5 21q-7 10 -14.5 17.5t-17.5 7.5q-17 0 -36 -14t-27 -29z" />
    <glyph glyph-name="Ocircumflex" unicode="&#xd4;" horiz-adv-x="858" 
d="M741 479q-31 17 -69.5 26.5t-92.5 9.5q-51 0 -107.5 -14.5t-111 -40t-104 -60t-87.5 -73.5t-60 -80.5t-22 -82.5q0 -42 21.5 -69t57 -43t81 -22t92.5 -6q55 0 113.5 8t113.5 23.5t103.5 38.5t85 53.5t58 68.5t21.5 84q0 52 -25.5 85t-62.5 52t-78.5 26t-73.5 7v10
q34 0 77 -7.5t81.5 -27.5t65 -55t26.5 -90q0 -47 -22 -86.5t-59 -71t-87 -56t-106 -40.5t-115.5 -24t-115.5 -8q-49 0 -96 6.5t-84 23.5t-59.5 46t-22.5 74q0 42 22.5 85t61 83t89 75t106.5 61.5t113.5 41.5t109.5 15q55 0 94.5 -10t71.5 -28zM479 667q20 6 48 18.5t53 22.5
q9 -11 22.5 -26t27.5 -26l-6 -8q-14 10 -26.5 22.5t-21.5 23.5q-22 -10 -48 -20.5t-45 -16.5z" />
    <glyph glyph-name="Oacute" unicode="&#xd3;" horiz-adv-x="858" 
d="M741 479q-31 17 -69.5 26.5t-92.5 9.5q-51 0 -107.5 -14.5t-111 -40t-104 -60t-87.5 -73.5t-60 -80.5t-22 -82.5q0 -42 21.5 -69t57 -43t81 -22t92.5 -6q55 0 113.5 8t113.5 23.5t103.5 38.5t85 53.5t58 68.5t21.5 84q0 52 -25.5 85t-62.5 52t-78.5 26t-73.5 7v10
q34 0 77 -7.5t81.5 -27.5t65 -55t26.5 -90q0 -47 -22 -86.5t-59 -71t-87 -56t-106 -40.5t-115.5 -24t-115.5 -8q-49 0 -96 6.5t-84 23.5t-59.5 46t-22.5 74q0 42 22.5 85t61 83t89 75t106.5 61.5t113.5 41.5t109.5 15q55 0 94.5 -10t71.5 -28zM435 642q16 9 37 22.5l43.5 29
l45.5 31.5l44 31l6 -8l-86 -60t-86 -54z" />
    <glyph glyph-name="Ograve" unicode="&#xd2;" horiz-adv-x="858" 
d="M741 479q-31 17 -69.5 26.5t-92.5 9.5q-51 0 -107.5 -14.5t-111 -40t-104 -60t-87.5 -73.5t-60 -80.5t-22 -82.5q0 -42 21.5 -69t57 -43t81 -22t92.5 -6q55 0 113.5 8t113.5 23.5t103.5 38.5t85 53.5t58 68.5t21.5 84q0 52 -25.5 85t-62.5 52t-78.5 26t-73.5 7v10
q34 0 77 -7.5t81.5 -27.5t65 -55t26.5 -90q0 -47 -22 -86.5t-59 -71t-87 -56t-106 -40.5t-115.5 -24t-115.5 -8q-49 0 -96 6.5t-84 23.5t-59.5 46t-22.5 74q0 42 22.5 85t61 83t89 75t106.5 61.5t113.5 41.5t109.5 15q55 0 94.5 -10t71.5 -28zM423 729l83.5 -45.5
t89.5 -42.5l-4 -10q-44 19 -85.5 41t-87.5 49z" />
    <glyph glyph-name="Ntilde" unicode="&#xd1;" horiz-adv-x="803" 
d="M49 14q7 40 21 91.5t34 109t44 116.5t51.5 114t56 102t57.5 80l8 -6q-28 -32 -57 -78.5t-55.5 -101t-51 -113.5t-44 -116t-33.5 -108.5t-21 -91.5zM705 560q15 -72 25 -156t10 -163q0 -53 -5.5 -100t-18.5 -82t-34.5 -55.5t-52.5 -20.5q-43 0 -83 28t-75.5 75.5
t-64.5 111t-50.5 134.5t-33 145t-11.5 144h10q0 -69 11.5 -142t32 -142.5t49 -132t62.5 -109.5t73 -74.5t80 -27.5q28 0 47.5 19.5t31.5 53.5t17 79t5 96q0 78 -10 161.5t-25 155.5zM412 698q10 17 31 33t40 16q14 0 23 -9t17 -20q8 -10 16 -18.5t20 -8.5q25 0 41.5 12
t30.5 30l8 -6q-15 -20 -33.5 -33t-46.5 -13q-16 0 -25.5 10t-18.5 21q-7 10 -14.5 17.5t-17.5 7.5q-17 0 -36 -14t-27 -29z" />
    <glyph glyph-name="Eth" unicode="&#xd0;" horiz-adv-x="523" 
d="M245 612q0 -133 -22 -247t-64 -198t-103.5 -131.5t-139.5 -47.5q-30 0 -53 7.5t-39 19t-24.5 25.5t-8.5 26q0 22 21 30.5t63 8.5q34 0 71.5 -11.5l80.5 -25.5q57 -19 120.5 -36.5t133.5 -17.5q33 0 68 5t64.5 20t48 41t18.5 68q0 51 -21.5 106t-58 107.5t-85.5 100
t-104 83t-113 56.5t-113 21q-56 0 -88.5 -12.5t-52.5 -27.5l-6 8q22 16 55 29t92 13q56 0 115 -21.5t115.5 -58t106 -84.5t87 -102t59.5 -110t22 -108q0 -45 -19.5 -73t-50.5 -44t-68 -21.5t-71 -5.5q-73 0 -137 17.5t-121 36.5l-80 25.5t-68 11.5q-74 0 -74 -29
q0 -11 7.5 -23t22.5 -22t36.5 -16.5t48.5 -6.5q76 0 135.5 47t100 129.5t62 194.5t21.5 243h10zM55 231q19 2 43 3.5l50 3t53 2.5t52 1h21.5t21.5 -1v-10q-11 1 -21.5 1h-21.5q-25 0 -52 -1t-53 -2.5l-50 -3t-43 -3.5v10z" />
    <glyph glyph-name="Idieresis" unicode="&#xcf;" horiz-adv-x="417" 
d="M238 640q7 1 14.5 1.5t15.5 0.5q16 0 34 -2.5t34.5 -8t31 -14t24.5 -20.5t14.5 -36.5t4.5 -55.5q0 -43 -8 -97t-23 -110t-36.5 -109.5t-49 -95t-60.5 -67t-70 -25.5q-25 0 -46 16.5t-36.5 42t-25 56t-12.5 59.5h10q3 -27 11.5 -56t23 -53t33.5 -39.5t42 -15.5
q36 0 67.5 25t57.5 66t47 93t35.5 107t22 108t7.5 95q0 30 -4.5 52.5t-12.5 33.5q-9 11 -22 19t-29 13t-32.5 7t-32.5 2q-7 0 -14 -0.5t-14 -1.5zM225 771q2 -9 12.5 -15t18.5 -6v-10q-11 0 -24.5 8.5t-16.5 20.5zM309 788q23 0 40 -20l-8 -6q-13 16 -32 16v10z" />
    <glyph glyph-name="Icircumflex" unicode="&#xce;" horiz-adv-x="417" 
d="M238 640q7 1 14.5 1.5t15.5 0.5q16 0 34 -2.5t34.5 -8t31 -14t24.5 -20.5t14.5 -36.5t4.5 -55.5q0 -43 -8 -97t-23 -110t-36.5 -109.5t-49 -95t-60.5 -67t-70 -25.5q-25 0 -46 16.5t-36.5 42t-25 56t-12.5 59.5h10q3 -27 11.5 -56t23 -53t33.5 -39.5t42 -15.5
q36 0 67.5 25t57.5 66t47 93t35.5 107t22 108t7.5 95q0 30 -4.5 52.5t-12.5 33.5q-9 11 -22 19t-29 13t-32.5 7t-32.5 2q-7 0 -14 -0.5t-14 -1.5zM255 758q20 6 48 18.5t53 22.5q9 -11 22.5 -26t27.5 -26l-6 -8q-14 10 -26.5 22.5t-21.5 23.5q-22 -10 -48 -20.5t-45 -16.5z
" />
    <glyph glyph-name="Iacute" unicode="&#xcd;" horiz-adv-x="417" 
d="M238 640q7 1 14.5 1.5t15.5 0.5q16 0 34 -2.5t34.5 -8t31 -14t24.5 -20.5t14.5 -36.5t4.5 -55.5q0 -43 -8 -97t-23 -110t-36.5 -109.5t-49 -95t-60.5 -67t-70 -25.5q-25 0 -46 16.5t-36.5 42t-25 56t-12.5 59.5h10q3 -27 11.5 -56t23 -53t33.5 -39.5t42 -15.5
q36 0 67.5 25t57.5 66t47 93t35.5 107t22 108t7.5 95q0 30 -4.5 52.5t-12.5 33.5q-9 11 -22 19t-29 13t-32.5 7t-32.5 2q-7 0 -14 -0.5t-14 -1.5zM227 746q16 9 37 22.5l43.5 29l45.5 31.5l44 31l6 -8l-86 -60t-86 -54z" />
    <glyph glyph-name="Igrave" unicode="&#xcc;" horiz-adv-x="417" 
d="M238 640q7 1 14.5 1.5t15.5 0.5q16 0 34 -2.5t34.5 -8t31 -14t24.5 -20.5t14.5 -36.5t4.5 -55.5q0 -43 -8 -97t-23 -110t-36.5 -109.5t-49 -95t-60.5 -67t-70 -25.5q-25 0 -46 16.5t-36.5 42t-25 56t-12.5 59.5h10q3 -27 11.5 -56t23 -53t33.5 -39.5t42 -15.5
q36 0 67.5 25t57.5 66t47 93t35.5 107t22 108t7.5 95q0 30 -4.5 52.5t-12.5 33.5q-9 11 -22 19t-29 13t-32.5 7t-32.5 2q-7 0 -14 -0.5t-14 -1.5zM226 854l83.5 -45.5t89.5 -42.5l-4 -10q-44 19 -85.5 41t-87.5 49z" />
    <glyph glyph-name="Edieresis" unicode="&#xcb;" horiz-adv-x="960" 
d="M720 495q-8 -1 -20 -1h-26q-38 0 -90.5 2t-107.5 5.5t-105 8t-82 9.5l2 10q32 -5 82 -9.5t104.5 -8t106.5 -5.5t90 -2h26t20 1v-10zM303 527q4 -2 6.5 -2t4.5 -1l58 -17t80 -29t86.5 -44t77.5 -60l-8 -8q-33 33 -75 58t-84 43t-78.5 29.5t-58.5 17.5q-4 1 -7.5 1.5
t-5.5 1.5zM609 366q-8 -2 -19 -5q-9 -2 -20.5 -5t-24.5 -6l-84 -20t-101.5 -26.5t-104 -31t-92.5 -34t-66 -36t-25 -35.5q0 -21 18 -37.5t48.5 -29.5t70 -22t82.5 -15t86 -8.5t81 -2.5q63 0 136.5 7t150.5 21.5t152 36.5t141 53l6 -9q-66 -31 -142 -53.5t-153.5 -37
t-152.5 -21.5t-138 -7q-64 0 -134 6.5t-128.5 21t-96.5 38.5t-38 59q0 18 21 36t56.5 35.5t83 34t101 32t110 29.5t110.5 26q21 5 36 9l26 7zM429 718q2 -9 12.5 -15t18.5 -6v-10q-11 0 -24.5 8.5t-16.5 20.5zM513 735q23 0 40 -20l-8 -6q-13 16 -32 16v10z" />
    <glyph glyph-name="Ecircumflex" unicode="&#xca;" horiz-adv-x="960" 
d="M720 495q-8 -1 -20 -1h-26q-38 0 -90.5 2t-107.5 5.5t-105 8t-82 9.5l2 10q32 -5 82 -9.5t104.5 -8t106.5 -5.5t90 -2h26t20 1v-10zM303 527q4 -2 6.5 -2t4.5 -1l58 -17t80 -29t86.5 -44t77.5 -60l-8 -8q-33 33 -75 58t-84 43t-78.5 29.5t-58.5 17.5q-4 1 -7.5 1.5
t-5.5 1.5zM609 366q-8 -2 -19 -5q-9 -2 -20.5 -5t-24.5 -6l-84 -20t-101.5 -26.5t-104 -31t-92.5 -34t-66 -36t-25 -35.5q0 -21 18 -37.5t48.5 -29.5t70 -22t82.5 -15t86 -8.5t81 -2.5q63 0 136.5 7t150.5 21.5t152 36.5t141 53l6 -9q-66 -31 -142 -53.5t-153.5 -37
t-152.5 -21.5t-138 -7q-64 0 -134 6.5t-128.5 21t-96.5 38.5t-38 59q0 18 21 36t56.5 35.5t83 34t101 32t110 29.5t110.5 26q21 5 36 9l26 7zM395 668q20 6 48 18.5t53 22.5q9 -11 22.5 -26t27.5 -26l-6 -8q-14 10 -26.5 22.5t-21.5 23.5q-22 -10 -48 -20.5t-45 -16.5z" />
    <glyph glyph-name="Eacute" unicode="&#xc9;" horiz-adv-x="960" 
d="M720 495q-8 -1 -20 -1h-26q-38 0 -90.5 2t-107.5 5.5t-105 8t-82 9.5l2 10q32 -5 82 -9.5t104.5 -8t106.5 -5.5t90 -2h26t20 1v-10zM303 527q4 -2 6.5 -2t4.5 -1l58 -17t80 -29t86.5 -44t77.5 -60l-8 -8q-33 33 -75 58t-84 43t-78.5 29.5t-58.5 17.5q-4 1 -7.5 1.5
t-5.5 1.5zM609 366q-8 -2 -19 -5q-9 -2 -20.5 -5t-24.5 -6l-84 -20t-101.5 -26.5t-104 -31t-92.5 -34t-66 -36t-25 -35.5q0 -21 18 -37.5t48.5 -29.5t70 -22t82.5 -15t86 -8.5t81 -2.5q63 0 136.5 7t150.5 21.5t152 36.5t141 53l6 -9q-66 -31 -142 -53.5t-153.5 -37
t-152.5 -21.5t-138 -7q-64 0 -134 6.5t-128.5 21t-96.5 38.5t-38 59q0 18 21 36t56.5 35.5t83 34t101 32t110 29.5t110.5 26q21 5 36 9l26 7zM408 661q16 9 37 22.5l43.5 29l45.5 31.5l44 31l6 -8l-86 -60t-86 -54z" />
    <glyph glyph-name="Egrave" unicode="&#xc8;" horiz-adv-x="960" 
d="M720 495q-8 -1 -20 -1h-26q-38 0 -90.5 2t-107.5 5.5t-105 8t-82 9.5l2 10q32 -5 82 -9.5t104.5 -8t106.5 -5.5t90 -2h26t20 1v-10zM303 527q4 -2 6.5 -2t4.5 -1l58 -17t80 -29t86.5 -44t77.5 -60l-8 -8q-33 33 -75 58t-84 43t-78.5 29.5t-58.5 17.5q-4 1 -7.5 1.5
t-5.5 1.5zM609 366q-8 -2 -19 -5q-9 -2 -20.5 -5t-24.5 -6l-84 -20t-101.5 -26.5t-104 -31t-92.5 -34t-66 -36t-25 -35.5q0 -21 18 -37.5t48.5 -29.5t70 -22t82.5 -15t86 -8.5t81 -2.5q63 0 136.5 7t150.5 21.5t152 36.5t141 53l6 -9q-66 -31 -142 -53.5t-153.5 -37
t-152.5 -21.5t-138 -7q-64 0 -134 6.5t-128.5 21t-96.5 38.5t-38 59q0 18 21 36t56.5 35.5t83 34t101 32t110 29.5t110.5 26q21 5 36 9l26 7zM368 730l83.5 -45.5t89.5 -42.5l-4 -10q-44 19 -85.5 41t-87.5 49z" />
    <glyph glyph-name="Ccedilla" unicode="&#xc7;" horiz-adv-x="834" 
d="M360 -11q6 8 14.5 21t16.5 24q-53 -5 -88 -6t-46 -1q-29 0 -61.5 6t-59.5 19.5t-45 36t-18 55.5q0 39 32 88t82.5 99t113.5 97t125.5 83.5t117.5 59t90 22.5q42 0 66 -19t36 -44t15.5 -49.5t3.5 -34.5h-10q0 9 -3 32t-14.5 46t-33.5 41t-60 18q-34 0 -88.5 -22
t-115.5 -58t-123 -82t-111.5 -95t-81 -96.5t-31.5 -85.5q0 -30 17 -50.5t42.5 -33t56.5 -18t58 -5.5q11 0 48.5 1.5t93.5 7.5l1 1l1 -1q49 5 109.5 14t127 23.5t136.5 36t139 50.5l5 -9q-74 -30 -145.5 -51.5t-137.5 -36t-124.5 -23.5t-106.5 -14l-14.5 -21.5l-15.5 -23.5
q9 2 21 2.5t24 0.5q17 0 30.5 -3t16.5 -10t-6.5 -16t-26.5 -18t-39 -16t-44 -10l-2 10q22 3 42 9.5t34.5 13.5t23 13.5t8.5 9.5q0 4 -11.5 5.5t-25.5 1.5q-16 0 -32.5 -2t-24.5 -4z" />
    <glyph glyph-name="Aring" unicode="&#xc5;" horiz-adv-x="578" 
d="M-161 217q-8 5 -18 12t-19 16t-15.5 19.5t-6.5 22.5q0 23 27 36.5t64 13.5q54 -1 128.5 -26.5t160 -74.5t175.5 -118t174 -155l-8 -8q-84 85 -173 154t-173.5 118t-158 74.5t-125.5 25.5q-32 0 -56.5 -10.5t-24.5 -29.5q0 -9 6 -18t14.5 -17.5t18 -15l16.5 -11.5zM18 -7
l48.5 77.5t70.5 104t88 118t100.5 121.5t108 114t110.5 94l6 -8q-55 -40 -110.5 -93.5t-107.5 -113t-100 -121.5t-87.5 -118.5l-70 -103.5l-48.5 -77zM550 614q-17 -90 -24 -162.5t-11 -146.5t-5.5 -154.5t0.5 -193.5l-9 -2q-4 115 -2.5 196.5t6 155.5t11.5 146.5t26 163.5z
M577 724q0 13 -8 23t-20 10q-17 0 -34.5 -12.5t-17.5 -39.5q0 -16 11.5 -21.5t21.5 -4.5q17 1 32 12t15 33zM587 724q0 -26 -18.5 -40t-38.5 -15q-13 -1 -28 6.5t-15 29.5q0 16 6 27.5t15 19t20 11.5t21 4q17 0 27.5 -13t10.5 -30z" />
    <glyph glyph-name="Adieresis" unicode="&#xc4;" horiz-adv-x="578" 
d="M-161 217q-8 5 -18 12t-19 16t-15.5 19.5t-6.5 22.5q0 23 27 36.5t64 13.5q54 -1 128.5 -26.5t160 -74.5t175.5 -118t174 -155l-8 -8q-84 85 -173 154t-173.5 118t-158 74.5t-125.5 25.5q-32 0 -56.5 -10.5t-24.5 -29.5q0 -9 6 -18t14.5 -17.5t18 -15l16.5 -11.5zM18 -7
l48.5 77.5t70.5 104t88 118t100.5 121.5t108 114t110.5 94l6 -8q-55 -40 -110.5 -93.5t-107.5 -113t-100 -121.5t-87.5 -118.5l-70 -103.5l-48.5 -77zM550 614q-17 -90 -24 -162.5t-11 -146.5t-5.5 -154.5t0.5 -193.5l-9 -2q-4 115 -2.5 196.5t6 155.5t11.5 146.5t26 163.5z
M456 732q2 -9 12.5 -15t18.5 -6v-10q-11 0 -24.5 8.5t-16.5 20.5zM540 749q23 0 40 -20l-8 -6q-13 16 -32 16v10z" />
    <glyph glyph-name="Atilde" unicode="&#xc3;" horiz-adv-x="578" 
d="M-161 217q-8 5 -18 12t-19 16t-15.5 19.5t-6.5 22.5q0 23 27 36.5t64 13.5q54 -1 128.5 -26.5t160 -74.5t175.5 -118t174 -155l-8 -8q-84 85 -173 154t-173.5 118t-158 74.5t-125.5 25.5q-32 0 -56.5 -10.5t-24.5 -29.5q0 -9 6 -18t14.5 -17.5t18 -15l16.5 -11.5zM18 -7
l48.5 77.5t70.5 104t88 118t100.5 121.5t108 114t110.5 94l6 -8q-55 -40 -110.5 -93.5t-107.5 -113t-100 -121.5t-87.5 -118.5l-70 -103.5l-48.5 -77zM550 614q-17 -90 -24 -162.5t-11 -146.5t-5.5 -154.5t0.5 -193.5l-9 -2q-4 115 -2.5 196.5t6 155.5t11.5 146.5t26 163.5z
M408 734q10 17 31 33t40 16q14 0 23 -9t17 -20q8 -10 16 -18.5t20 -8.5q25 0 41.5 12t30.5 30l8 -6q-15 -20 -33.5 -33t-46.5 -13q-16 0 -25.5 10t-18.5 21q-7 10 -14.5 17.5t-17.5 7.5q-17 0 -36 -14t-27 -29z" />
    <glyph glyph-name="Acircumflex" unicode="&#xc2;" horiz-adv-x="578" 
d="M-161 217q-8 5 -18 12t-19 16t-15.5 19.5t-6.5 22.5q0 23 27 36.5t64 13.5q54 -1 128.5 -26.5t160 -74.5t175.5 -118t174 -155l-8 -8q-84 85 -173 154t-173.5 118t-158 74.5t-125.5 25.5q-32 0 -56.5 -10.5t-24.5 -29.5q0 -9 6 -18t14.5 -17.5t18 -15l16.5 -11.5zM18 -7
l48.5 77.5t70.5 104t88 118t100.5 121.5t108 114t110.5 94l6 -8q-55 -40 -110.5 -93.5t-107.5 -113t-100 -121.5t-87.5 -118.5l-70 -103.5l-48.5 -77zM550 614q-17 -90 -24 -162.5t-11 -146.5t-5.5 -154.5t0.5 -193.5l-9 -2q-4 115 -2.5 196.5t6 155.5t11.5 146.5t26 163.5z
M450 728q20 6 48 18.5t53 22.5q9 -11 22.5 -26t27.5 -26l-6 -8q-14 10 -26.5 22.5t-21.5 23.5q-22 -10 -48 -20.5t-45 -16.5z" />
    <glyph glyph-name="Aacute" unicode="&#xc1;" horiz-adv-x="578" 
d="M-161 217q-8 5 -18 12t-19 16t-15.5 19.5t-6.5 22.5q0 23 27 36.5t64 13.5q54 -1 128.5 -26.5t160 -74.5t175.5 -118t174 -155l-8 -8q-84 85 -173 154t-173.5 118t-158 74.5t-125.5 25.5q-32 0 -56.5 -10.5t-24.5 -29.5q0 -9 6 -18t14.5 -17.5t18 -15l16.5 -11.5zM18 -7
l48.5 77.5t70.5 104t88 118t100.5 121.5t108 114t110.5 94l6 -8q-55 -40 -110.5 -93.5t-107.5 -113t-100 -121.5t-87.5 -118.5l-70 -103.5l-48.5 -77zM550 614q-17 -90 -24 -162.5t-11 -146.5t-5.5 -154.5t0.5 -193.5l-9 -2q-4 115 -2.5 196.5t6 155.5t11.5 146.5t26 163.5z
M465 686q16 9 37 22.5l43.5 29l45.5 31.5l44 31l6 -8l-86 -60t-86 -54z" />
    <glyph glyph-name="Agrave" unicode="&#xc0;" horiz-adv-x="578" 
d="M-161 217q-8 5 -18 12t-19 16t-15.5 19.5t-6.5 22.5q0 23 27 36.5t64 13.5q54 -1 128.5 -26.5t160 -74.5t175.5 -118t174 -155l-8 -8q-84 85 -173 154t-173.5 118t-158 74.5t-125.5 25.5q-32 0 -56.5 -10.5t-24.5 -29.5q0 -9 6 -18t14.5 -17.5t18 -15l16.5 -11.5zM18 -7
l48.5 77.5t70.5 104t88 118t100.5 121.5t108 114t110.5 94l6 -8q-55 -40 -110.5 -93.5t-107.5 -113t-100 -121.5t-87.5 -118.5l-70 -103.5l-48.5 -77zM550 614q-17 -90 -24 -162.5t-11 -146.5t-5.5 -154.5t0.5 -193.5l-9 -2q-4 115 -2.5 196.5t6 155.5t11.5 146.5t26 163.5z
M410 813l83.5 -45.5t89.5 -42.5l-4 -10q-44 19 -85.5 41t-87.5 49z" />
    <glyph glyph-name="Ydieresis" unicode="&#x178;" horiz-adv-x="630" 
d="M-77 718q-33 -62 -33 -142q0 -55 20.5 -109t59.5 -97.5t96.5 -70.5t132.5 -27q70 0 128 18.5t109 52.5t98 82.5t95 109.5l8 -7q-59 -72 -111.5 -122.5t-104 -82.5t-106 -46.5t-116.5 -14.5q-77 0 -136.5 28t-100 73t-61.5 101t-21 112q0 39 8.5 76.5t26.5 69.5zM637 527
q-15 -53 -37 -116.5t-47 -128.5t-51.5 -126.5t-50.5 -109.5l-8 4q23 46 48.5 107l50.5 125.5t47 128.5t38 118zM258 824q2 -9 12.5 -15t18.5 -6v-10q-11 0 -24.5 8.5t-16.5 20.5zM342 841q23 0 40 -20l-8 -6q-13 16 -32 16v10z" />
    <glyph glyph-name="zcaron" unicode="&#x17e;" horiz-adv-x="380" 
d="M142 219q17 3 37 3.5t37.5 -2t29 -8t11.5 -15.5q0 -9 -13 -21t-46 -33l-57 -36l-56 -36t-32 -27q0 -5 11 -6t26 -1q23 0 58 5.5t81 20.5t103 41t126 67l6 -8q-70 -41 -128.5 -67.5t-105.5 -41.5t-82 -21t-58 -6q-20 0 -34.5 3t-14.5 14q0 7 32.5 30t57 38l57.5 36t46 32
t13 18q0 6 -11.5 9.5t-28 4.5t-30 1t-34.5 -3zM90 378l18 -18t23.5 -21.5l24.5 -20t21 -13.5l-4 -8q-9 5 -22 14.5t-26 20.5t-24.5 22l-18.5 18zM301 407q-8 -9 -25 -24.5l-36.5 -32l-38 -31.5l-28.5 -23l-6 8l28.5 23l37.5 31l35.5 31t24.5 24z" />
    <glyph glyph-name="scaron" unicode="&#x161;" horiz-adv-x="207" 
d="M119 232q-12 0 -21 -4q-8 -3 -14.5 -10.5t-6.5 -20.5q0 -26 41.5 -89t41.5 -95q0 -11 -8.5 -17t-29.5 -4q-12 1 -26 5t-27 9.5t-22.5 10.5t-22.5 14l6 8q20 -13 44.5 -24t47.5 -13q28 -1 28 11q0 27 -41.5 91t-41.5 93q0 17 8 25.5t18 13.5q11 5 26 6v-10zM3 378l18 -18
t23.5 -21.5l24.5 -20t21 -13.5l-4 -8q-9 5 -22 14.5t-26 20.5t-24.5 22l-18.5 18zM214 407q-8 -9 -25 -24.5l-36.5 -32l-38 -31.5l-28.5 -23l-6 8l28.5 23l37.5 31l35.5 31t24.5 24z" />
    <glyph glyph-name="Zcaron" unicode="&#x17d;" horiz-adv-x="1000" 
d="M189 558q6 0 12 0.5t12 0.5q42 1 92.5 2t103.5 1q66 0 128.5 -2.5t107.5 -9.5l-2 -10q-45 7 -107 9.5t-127 2.5q-53 0 -103.5 -1t-92.5 -2q-6 0 -12 -0.5t-12 -0.5v10zM643 540q-31 -13 -85.5 -38.5t-118 -60t-129.5 -76.5t-119 -87.5t-87 -93.5t-34 -94q0 -32 13.5 -55
t36.5 -38t54 -22t67 -7q32 0 81.5 2t113 9t138.5 20.5t157.5 35.5t170.5 54.5t177 78.5l4 -8q-135 -69 -266 -109.5t-243 -61t-198.5 -26t-134.5 -5.5q-38 0 -71 7.5t-57.5 23.5t-38.5 41t-14 60q0 48 34 97t88 95.5t120.5 89t130.5 77.5t119 61t87 39zM370 756l18 -18
t23.5 -21.5l24.5 -20t21 -13.5l-4 -8q-9 5 -22 14.5t-26 20.5t-24.5 22l-18.5 18zM581 785q-8 -9 -25 -24.5l-36.5 -32l-38 -31.5l-28.5 -23l-6 8l28.5 23l37.5 31l35.5 31t24.5 24z" />
    <glyph glyph-name="Scaron" unicode="&#x160;" horiz-adv-x="691" 
d="M420 157l47 5q-17 18 -44.5 32t-59 24.5t-62.5 16t-55 5.5q-29 0 -57.5 -5t-51 -16t-37 -28.5t-14.5 -41.5q0 -44 31 -77t77.5 -56t101.5 -34.5t103 -11.5q37 0 79.5 9.5t78.5 28.5t60 46t24 62q0 40 -18.5 81t-47 81.5t-63 78l-65.5 69.5q-37 38 -62 68t-25 47
q0 32 42 32q37 0 72.5 -16.5t67.5 -41.5t58.5 -53t44.5 -52l-8 -6q-18 23 -43.5 50.5t-56.5 51.5t-65.5 40.5t-69.5 16.5q-32 0 -32 -22q0 -14 24.5 -42.5t60.5 -66.5l66 -71t63.5 -78.5t47.5 -83t19 -83.5q0 -37 -25 -66t-62.5 -49t-81.5 -30.5t-83 -10.5
q-50 0 -106.5 12.5t-104.5 36.5t-80 59t-32 81q0 27 15.5 46t40 31t54.5 17t60 5q29 0 63.5 -6t67.5 -18t61.5 -29t45.5 -39l-62 -8zM378 732l18 -18t23.5 -21.5l24.5 -20t21 -13.5l-4 -8q-9 5 -22 14.5t-26 20.5t-24.5 22l-18.5 18zM589 761q-8 -9 -25 -24.5l-36.5 -32
l-38 -31.5l-28.5 -23l-6 8l28.5 23l37.5 31l35.5 31t24.5 24z" />
  </font>
</defs>
</svg>
